<?xml version="1.0" encoding="utf-8"?>
<!-- Generator: Adobe Illustrator 25.2.1, SVG Export Plug-In . SVG Version: 6.00 Build 0)  -->
<svg version="1.1" xmlns="http://www.w3.org/2000/svg" xmlns:xlink="http://www.w3.org/1999/xlink" x="0px" y="0px"
	 viewBox="0 0 54.04 54" style="enable-background:new 0 0 54.04 54;" xml:space="preserve">
<style type="text/css">
	.st0{fill:#E21F37;}
	.st1{fill:#EA2B2C;}
	.st2{fill:#EA2C2D;}
	.st3{fill:#060605;}
	.st4{fill:#E73632;}
	.st5{fill:#FFFFFF;}
	.st6{fill:#FFFFFF;stroke:#E21F37;stroke-width:10;stroke-miterlimit:10;}
	.st7{fill:none;stroke:#E21F37;stroke-width:10;stroke-miterlimit:10;}
	.st8{fill:none;stroke:#E21F37;stroke-width:6;stroke-miterlimit:10;}
	.st9{fill:none;stroke:#E21F37;stroke-width:6;stroke-linecap:round;stroke-miterlimit:10;}
	.st10{fill:#010101;}
	.st11{fill:#E31F36;}
	.st12{fill:none;stroke:#010101;stroke-miterlimit:10;}
	.st13{fill:#FFFFFF;stroke:#E21F37;stroke-width:6;stroke-miterlimit:10;}
	.st14{fill:#FFFFFF;stroke:#E21F37;stroke-width:6;stroke-linecap:round;stroke-miterlimit:10;}
	.st15{fill:#FFFFFF;stroke:#E21F37;stroke-width:4;stroke-miterlimit:10;}
</style>
<g id="Layer_1">
	<path class="st0" d="M49.68,29.07c0-0.04,0-0.09,0-0.13c0,0,0-0.01,0-0.01c0.02-0.65-0.21-1.26-0.66-1.73
		c-0.23-0.24-0.52-0.43-0.82-0.55c0.08-0.17,0.12-0.34,0.16-0.52c0-0.01,0-0.02,0.01-0.03c0.01-0.04,0.01-0.09,0.02-0.13
		c0.02-0.13,0.03-0.27,0.02-0.41c-0.04-1.24-1.1-2.25-2.36-2.28c0.19-1.53,0.28-3.08,0.28-4.65V7.25l-2.89-0.23
		c-7.11-0.56-12.36-2.88-14.85-4.21C27.59,2.28,26.47,2,25.34,2c-1.13,0-2.25,0.28-3.25,0.81C19.6,4.14,14.35,6.46,7.24,7.02
		L4.35,7.25v11.36c0,11.24,4.87,21.68,13.37,28.64c1.97,1.61,4.06,2.98,6.21,4.05l1.4,0.7l1.4-0.7c2.13-1.07,4.21-2.42,6.17-4.02
		c3.57-2.91,6.49-6.43,8.7-10.37h2.46h0.18c0.49,0,0.97-0.2,1.32-0.56c0.27-0.28,0.44-0.63,0.5-1c0.04-0.16,0.06-0.33,0.06-0.5
		c0-0.15-0.02-0.3-0.06-0.44c0.11,0,0.22-0.02,0.33-0.04c1.08-0.1,1.96-0.99,2-2.07c0-0.01,0-0.01,0-0.02
		c0.01-0.05,0.01-0.11,0.01-0.16c0.01-0.38-0.06-0.76-0.22-1.1C49.02,30.76,49.65,29.98,49.68,29.07z M31.99,46.16
		c-1.87,1.53-3.86,2.82-5.9,3.84l-0.75,0.38L24.59,50c-2.06-1.03-4.05-2.33-5.94-3.88C10.49,39.44,5.81,29.41,5.81,18.61V8.59
		l1.55-0.12c7.37-0.58,12.83-2.99,15.42-4.38c1.57-0.84,3.56-0.84,5.13,0c2.59,1.38,8.05,3.79,15.42,4.38l1.55,0.12v10.02
		c0,1.57-0.1,3.12-0.3,4.65h-2.59l0-6.11c0-1.5-1.22-2.73-2.73-2.73s-2.73,1.22-2.73,2.73v1.68c0,0.39-0.08,0.77-0.23,1.11
		c-0.01,0.01-0.02,0.03-0.03,0.06c-0.07,0.14-0.27,0.55-0.65,0.89c-0.12,0.11-0.25,0.21-0.39,0.3l-2.92,1.86
		c-0.22,0.14-0.48,0.21-0.74,0.21h-0.49c-0.28-0.68-0.96-1.14-1.7-1.14h-2.99c-0.72,0-1.37,0.42-1.67,1.07h-2.47
		c-0.89,0-1.62,0.73-1.62,1.62v9.2c0,0.89,0.73,1.62,1.62,1.62h2.36V46.2c-1.36-0.76-2.69-1.66-3.97-2.69
		C13.31,37.61,9.11,28.7,9.11,19.07v-7.42C16.2,10.97,21.45,8.64,24,7.28c0.19-0.1,0.4-0.19,0.61-0.24v12.48
		c0,0.4,0.33,0.73,0.73,0.73c0.4,0,0.73-0.33,0.73-0.73V5.49h-0.74c-0.7,0-1.39,0.18-2.01,0.51c-2.52,1.35-7.83,3.69-14.99,4.26
		l-0.67,0.05v8.76c0,10.07,4.4,19.39,12.08,25.57c1.48,1.19,3.04,2.23,4.63,3.08c0.17,0.09,0.36,0.14,0.55,0.14
		c0.19,0,0.38-0.05,0.56-0.14c0.34-0.19,0.6-0.68,0.6-1.06v-9.97c0.06,0.01,0.12,0.01,0.18,0.01h3.14c0.07,0,0.14-0.01,0.21-0.01
		c0.01,0,0.02,0,0.04-0.01c0.41-0.06,0.8-0.25,1.09-0.56l0.4,0.23c0.65,0.37,1.39,0.56,2.14,0.56h0.06h3.4h1.67h1.54
		C37.87,40.41,35.2,43.54,31.99,46.16z M24.61,34.1h-2.36c-0.05,0-0.09-0.04-0.09-0.09v-9.2c0-0.05,0.04-0.09,0.09-0.09h2.36v8.25
		V34.1z M47.27,29.68h-2.58h-1.52h-0.06c-0.42,0-0.77,0.34-0.77,0.77c0,0.27,0.14,0.5,0.35,0.64c0.12,0.08,0.26,0.13,0.42,0.13h1.08
		h1.84c0.23,0,0.44,0.09,0.6,0.26c0.16,0.16,0.24,0.38,0.23,0.61c-0.02,0.44-0.41,0.81-0.88,0.81H44.1l-0.03,0l-0.03,0h-0.49h-0.44
		c-0.42,0-0.77,0.34-0.77,0.77c0,0.35,0.24,0.64,0.56,0.73c0.07,0.02,0.14,0.03,0.21,0.03h0.93l0.03,0l0.04,0
		c0.26,0,0.48,0.21,0.48,0.47c0,0.12-0.05,0.24-0.14,0.33c-0.1,0.1-0.24,0.16-0.38,0.16h-1.65h-1.64h-7.53
		c-0.48,0-0.96-0.13-1.38-0.36l-0.66-0.37v-1.07c0-0.42-0.34-0.77-0.77-0.77c-0.42,0-0.77,0.34-0.77,0.77v1.3
		c0,0.17-0.14,0.3-0.3,0.3h-3.14c-0.09,0-0.16-0.07-0.16-0.16V23.96c0-0.17,0.14-0.3,0.3-0.3h2.99c0.17,0,0.3,0.14,0.3,0.3v7.12
		c0,0.42,0.34,0.77,0.77,0.77c0.42,0,0.77-0.34,0.77-0.77v-6.28h0.36c0.55,0,1.09-0.16,1.56-0.45l2.92-1.86
		c1.26-0.8,2.01-2.17,2.01-3.65v-1.68c0-0.66,0.54-1.19,1.19-1.19c0.66,0,1.19,0.54,1.19,1.19l0,6.52c0,0.62,0.5,1.12,1.12,1.12
		h2.77h1.48h0.16c0.47,0,0.86,0.36,0.88,0.81c0.01,0.23-0.08,0.45-0.23,0.61c-0.16,0.16-0.37,0.26-0.6,0.26h-0.52h-1.48h-0.92
		c-0.42,0-0.77,0.34-0.77,0.77c0,0.42,0.34,0.77,0.77,0.77h0.55h1.5h2.15c0.23,0,0.44,0.09,0.6,0.26c0.16,0.16,0.24,0.38,0.23,0.61
		C48.13,29.32,47.74,29.68,47.27,29.68z"/>
</g>
<g id="Capa_1">
</g>
</svg>
