<?xml version="1.0" encoding="utf-8"?>
<!-- Generator: Adobe Illustrator 25.2.1, SVG Export Plug-In . SVG Version: 6.00 Build 0)  -->
<svg version="1.1" xmlns="http://www.w3.org/2000/svg" xmlns:xlink="http://www.w3.org/1999/xlink" x="0px" y="0px"
	 viewBox="0 0 65.73 54" style="enable-background:new 0 0 65.73 54;" xml:space="preserve">
<style type="text/css">
	.st0{fill:#E21F37;}
	.st1{fill:#EA2B2C;}
	.st2{fill:#EA2C2D;}
	.st3{fill:#060605;}
	.st4{fill:#E73632;}
	.st5{fill:#FFFFFF;}
	.st6{fill:#FFFFFF;stroke:#E21F37;stroke-width:10;stroke-miterlimit:10;}
	.st7{fill:none;stroke:#E21F37;stroke-width:10;stroke-miterlimit:10;}
	.st8{fill:none;stroke:#E21F37;stroke-width:6;stroke-miterlimit:10;}
	.st9{fill:none;stroke:#E21F37;stroke-width:6;stroke-linecap:round;stroke-miterlimit:10;}
	.st10{fill:#010101;}
	.st11{fill:#E31F36;}
	.st12{fill:none;stroke:#010101;stroke-miterlimit:10;}
	.st13{fill:#FFFFFF;stroke:#E21F37;stroke-width:6;stroke-miterlimit:10;}
	.st14{fill:#FFFFFF;stroke:#E21F37;stroke-width:6;stroke-linecap:round;stroke-miterlimit:10;}
	.st15{fill:#FFFFFF;stroke:#E21F37;stroke-width:4;stroke-miterlimit:10;}
</style>
<g id="Layer_1">
</g>
<g id="Capa_1">
	<g>
		<path class="st0" d="M50.38,23.95c0.38,0.12,0.79-0.09,0.91-0.48c0.12-0.38-0.09-0.79-0.48-0.91c-3.05-0.95-4.75-4.2-3.8-7.25
			c0.46-1.48,1.47-2.68,2.84-3.4c1.37-0.72,2.94-0.86,4.41-0.4c3.05,0.95,4.75,4.2,3.8,7.25c-0.57,1.84-2.02,3.27-3.87,3.82
			c-0.39,0.12-0.6,0.52-0.49,0.91C53.8,23.8,54.09,24,54.4,24c0.07,0,0.14-0.01,0.21-0.03c2.31-0.69,4.12-2.48,4.84-4.78
			c1.19-3.81-0.94-7.88-4.75-9.07c-1.85-0.58-3.81-0.4-5.52,0.5c-1.71,0.9-2.98,2.41-3.55,4.25c-0.58,1.85-0.4,3.81,0.5,5.52
			C47.02,22.11,48.53,23.37,50.38,23.95z"/>
		<path class="st0" d="M11.03,23.95c0.38,0.12,0.79-0.09,0.91-0.48c0.12-0.38-0.09-0.79-0.48-0.91c-3.05-0.95-4.75-4.2-3.8-7.25
			c0.46-1.48,1.47-2.68,2.84-3.4c1.37-0.72,2.94-0.86,4.41-0.4c3.05,0.95,4.75,4.2,3.8,7.25c-0.57,1.84-2.02,3.27-3.87,3.82
			c-0.39,0.12-0.6,0.52-0.49,0.91c0.09,0.32,0.38,0.52,0.7,0.52c0.07,0,0.14-0.01,0.21-0.03c2.31-0.69,4.12-2.48,4.84-4.78
			c1.19-3.81-0.94-7.88-4.75-9.07c-1.85-0.58-3.81-0.4-5.52,0.5c-1.71,0.9-2.98,2.41-3.55,4.25C5.09,18.68,7.22,22.75,11.03,23.95z"
			/>
		<path class="st0" d="M54.56,26.1h-4.04c-2.33,0-4.46,0.89-6.07,2.35c-2.17-2.78-5.55-4.56-9.34-4.56h-5.43
			c-3.57,0-6.78,1.59-8.96,4.1c-1.53-1.18-3.43-1.88-5.51-1.88h-4.04c-4.98,0-9.03,4.05-9.03,9.03v11.1c0,0.66,0.53,1.19,1.19,1.19
			h14.48v3.22c0,0.74,0.61,1.35,1.35,1.35h26.47c0.74,0,1.35-0.61,1.35-1.35v-3.22H62.4c0.66,0,1.19-0.53,1.19-1.19v-11.1
			C63.59,30.16,59.54,26.1,54.56,26.1z M52.54,28.87l-1.06-1.31h2.13L52.54,28.87z M52.54,32.01l1.05,6.2l-1.05,1.15l-1.05-1.15
			L52.54,32.01z M50.31,27.66l0.94,1.16l-0.56,0.4l-0.71-1.43L50.31,27.66z M55.11,27.79l-0.71,1.43l-0.56-0.4l0.94-1.16
			L55.11,27.79z M32.86,27.99l-2.14-2.64H35L32.86,27.99z M32.88,32.7l1.78,10.53l-1.8,1.98l-1.8-1.98l1.78-10.53H32.88z
			 M29.79,28.54l-1.24-2.48l0.67-0.26l1.62,2L29.79,28.54z M37.17,26.06l-1.24,2.48l-1.05-0.74l1.62-2L37.17,26.06z M13.19,28.87
			l-1.06-1.31h2.13L13.19,28.87z M13.19,32.01l1.05,6.2l-1.05,1.15l-1.05-1.15L13.19,32.01z M10.96,27.66l0.94,1.16l-0.56,0.4
			l-0.71-1.43L10.96,27.66z M15.76,27.79l-0.71,1.43l-0.56-0.4l0.94-1.16L15.76,27.79z M45.52,50.54H19.26v-3.12v-1.46v-6.1
			c0-0.4-0.33-0.73-0.73-0.73s-0.73,0.33-0.73,0.73v6.1H3.59V35.14c0-3.61,2.54-6.64,5.92-7.39l0.99,1.99
			c0.12,0.23,0.33,0.4,0.58,0.47c0.24,0.06,0.49,0.02,0.7-0.12l0.59,0.89l-1.2,7.11c-0.05,0.27,0.03,0.54,0.22,0.75l1.14,1.25
			c0.17,0.19,0.41,0.29,0.66,0.29h0c0.25,0,0.49-0.11,0.66-0.29l1.14-1.25c0.18-0.2,0.26-0.48,0.22-0.75L14,30.98l0.59-0.89
			c0.21,0.13,0.46,0.18,0.7,0.12c0.25-0.06,0.46-0.23,0.58-0.47l0.99-1.99c1.1,0.25,2.1,0.73,2.96,1.39
			c-1.28,1.89-2.02,4.17-2.02,6.62c0,0.4,0.33,0.73,0.73,0.73s0.73-0.33,0.73-0.73c0-2.06,0.61-3.99,1.65-5.61
			c0.27-0.42,0.56-0.81,0.89-1.19c1.3-1.5,3.02-2.63,4.98-3.2l1.95,3.91c0.13,0.26,0.37,0.45,0.65,0.53
			c0.28,0.07,0.58,0.01,0.82-0.16l0.38-0.27l1.03,1.55l-2.01,11.89l0,0c-0.05,0.31,0.04,0.61,0.25,0.84l2.28,2.51
			c0.19,0.21,0.46,0.33,0.74,0.33s0.55-0.12,0.74-0.33l2.28-2.51c0.21-0.23,0.3-0.54,0.25-0.84l-2.01-11.89l1.03-1.55l0.38,0.27
			c0.24,0.17,0.54,0.23,0.82,0.16c0.28-0.07,0.52-0.26,0.65-0.53l1.82-3.64c1.85,0.71,3.45,1.93,4.62,3.5
			c0.31,0.41,0.59,0.85,0.84,1.31c0.79,1.46,1.24,3.14,1.24,4.92v10.22v1.46V50.54z M62.14,45.97H46.97V35.76
			c0-2.23-0.62-4.31-1.69-6.09c0.98-0.94,2.21-1.61,3.58-1.92l0.99,1.99c0.12,0.23,0.33,0.4,0.58,0.47c0.24,0.06,0.49,0.02,0.7-0.12
			l0.59,0.89l-1.2,7.11c-0.05,0.27,0.03,0.54,0.22,0.75l1.14,1.25c0.17,0.19,0.41,0.29,0.66,0.29c0.25,0,0.49-0.11,0.66-0.29
			l1.14-1.25c0.18-0.2,0.26-0.48,0.22-0.75l-1.2-7.11l0.59-0.89c0.21,0.13,0.46,0.18,0.7,0.12c0.25-0.06,0.46-0.23,0.58-0.47
			l0.99-1.99c3.38,0.76,5.92,3.78,5.92,7.39V45.97z"/>
		<path class="st0" d="M30.2,20.71c0.05,0.01,0.11,0.02,0.16,0.02c0.33,0,0.63-0.23,0.71-0.57c0.09-0.39-0.16-0.78-0.55-0.87
			c-2.09-0.47-3.87-1.72-5.02-3.52s-1.52-3.95-1.06-6.04C25.4,5.41,29.69,2.69,34,3.65c4.31,0.96,7.04,5.25,6.08,9.56
			c-0.65,2.94-2.87,5.24-5.78,6.01c-0.39,0.1-0.62,0.5-0.52,0.89c0.1,0.39,0.5,0.62,0.89,0.52c3.44-0.91,6.06-3.63,6.83-7.1
			c1.14-5.1-2.09-10.17-7.18-11.3c-5.1-1.14-10.17,2.09-11.3,7.18C21.88,14.51,25.1,19.58,30.2,20.71z"/>
	</g>
</g>
</svg>
