<?xml version="1.0" encoding="utf-8"?>
<!-- Generator: Adobe Illustrator 24.0.2, SVG Export Plug-In . SVG Version: 6.00 Build 0)  -->
<svg version="1.1" id="Layer_1" xmlns="http://www.w3.org/2000/svg" xmlns:xlink="http://www.w3.org/1999/xlink" x="0px" y="0px"
	 viewBox="0 0 45 45.3" style="enable-background:new 0 0 45 45.3;" xml:space="preserve">
<style type="text/css">
	.st0{fill:#E21F36;}
</style>
<path class="st0" d="M22.5,1C14.4,1,7.9,7.5,7.9,15.6c0,7.1,11.2,24.2,14,28.4c0.3,0.5,1,0.5,1.3,0c2.8-4.2,14-21.4,14-28.4
	C37.1,7.5,30.6,1,22.5,1z M22.4,20.5c-3.4,0-6.2-2.8-6.2-6.2c0-3.4,2.8-6.2,6.2-6.2c3.4,0,6.2,2.8,6.2,6.2
	C28.6,17.7,25.8,20.5,22.4,20.5z"/>
</svg>
