<?xml version="1.0" encoding="utf-8"?>
<!-- Generator: Adobe Illustrator 25.2.1, SVG Export Plug-In . SVG Version: 6.00 Build 0)  -->
<svg version="1.1" xmlns="http://www.w3.org/2000/svg" xmlns:xlink="http://www.w3.org/1999/xlink" x="0px" y="0px"
	 viewBox="0 0 700 700" style="enable-background:new 0 0 700 700;" xml:space="preserve">
<style type="text/css">
	.st0{fill:#E21E37;}
	.st1{fill:none;stroke:#E21E37;stroke-width:20;stroke-linecap:round;stroke-miterlimit:10;}
</style>
<g id="Layer_1">
</g>
<g id="_x3C_Layer_x3E_">
	<g>
		<path class="st0" d="M195.7,350.4c0.1,85.1,69.3,154.4,154.4,154.4c85.1,0.1,154.3-69.1,154.2-154.2
			c-0.1-85.1-69.3-154.4-154.4-154.4S195.6,265.3,195.7,350.4z M280.3,342.1c2-65.7,28.3-120.5,61.3-128.4l0.1,128.4L280.3,342.1z
			 M341.7,358.8l0.1,128.4c-33-7.9-59.5-62.8-61.5-128.5L341.7,358.8z M212.5,342.1c3.2-54.9,38.2-101.8,89.2-120.7
			c-22.5,26.4-36.7,71-38.1,120.7L212.5,342.1z M301.9,479.5c-51-19-86.1-65.9-89.4-120.8l51.1,0C265.1,408.4,279.4,453,301.9,479.5
			z M487.5,358.9c-3.2,54.9-38.2,101.8-89.2,120.7c22.5-26.4,36.7-71,38.1-120.7L487.5,358.9z M398.1,221.5
			c51,19,86.1,65.9,89.4,120.8l-51.1,0C434.9,292.6,420.6,248,398.1,221.5z M358.3,342.2l-0.1-128.4c33,7.9,59.5,62.8,61.5,128.5
			L358.3,342.2z M358.4,487.2l-0.1-128.4l61.4,0C417.8,424.5,391.4,479.3,358.4,487.2z"/>
		<path class="st0" d="M470.2,600.4L470.2,600.4c-1.9-4.2-6.8-6.1-10.9-4.2c-69.7,31-149.5,30.9-219.1-0.3c-2-0.9-4.3-1-6.3-0.2
			c-2.1,0.8-3.7,2.3-4.6,4.4c-1.4,3.1-0.7,6.8,1.7,9.3c0.7,0.7,1.5,1.3,2.5,1.7c73.9,33.1,158.6,33.3,232.6,0.3
			C470.1,609.5,472,604.6,470.2,600.4z"/>
		<path class="st0" d="M595.7,241.9L595.7,241.9c30.8,69.9,30.4,149.8-1,219.4c-1.4,3.1-0.7,6.9,1.7,9.3c0.7,0.7,1.5,1.3,2.4,1.7
			c2,0.9,4.3,1,6.3,0.2c2.1-0.8,3.7-2.3,4.6-4.3c33.3-73.9,33.7-158.8,1-232.9c-1.9-4.2-6.8-6.1-10.9-4.2
			C595.8,232.8,593.9,237.7,595.7,241.9z"/>
		<path class="st0" d="M234.1,98.5L234.1,98.5c0.4,1,1,1.9,1.8,2.6c2.4,2.4,6,3.1,9.1,1.8c65.3-27.7,140.4-28.3,206.1-1.7
			c2,0.8,4.3,0.8,6.3,0c2-0.9,3.6-2.5,4.5-4.5c1.7-4.2-0.3-9.1-4.6-10.8c-69.8-28.3-149.5-27.7-218.8,1.8c-2,0.9-3.6,2.5-4.4,4.5
			C233.2,94.3,233.2,96.5,234.1,98.5z"/>
		<path class="st0" d="M104.2,458.9c-30-68.3-30.3-146.7-0.7-215.2c1.8-4.2-0.1-9.1-4.3-10.9c-4.2-1.8-9.1,0.1-10.9,4.3
			c-31.4,72.7-31.1,156,0.8,228.4c0.4,0.9,1,1.8,1.7,2.5c2.4,2.4,6,3.1,9.2,1.7c2-0.9,3.6-2.5,4.4-4.6
			C105.2,463.2,105.1,461,104.2,458.9z"/>
		<path class="st0" d="M431.8,169l99.5,99.6c4,4,10.6,4,14.6,0l56-56c25.8-25.9,25.8-67.9,0-93.8l-20.4-20.4
			c-25.8-25.9-67.8-25.9-93.7,0c-2.7,2.7-2.7,7.2,0,9.9c2.7,2.7,7.2,2.7,9.9,0c20.4-20.4,53.5-20.4,73.8,0l20.4,20.4
			c20.4,20.4,20.4,53.5,0,73.9L538.5,256l-94.2-94.3l37.9-37.9c2.7-2.7,2.7-7.2,0-9.9c-2.7-2.7-7.2-2.7-9.9,0l-40.5,40.5
			C427.8,158.4,427.8,164.9,431.8,169z"/>
		<path class="st0" d="M590.4,92.2c0.3,0.4,0.6,0.8,1,1.2c2.3,2.3,6,2.7,8.7,1c3.3-2.1,4.2-6.4,2.2-9.7c-5.6-8.9-7.5-19.5-5.2-29.8
			c2.3-10.3,8.5-19.1,17.3-24.7c18.3-11.7,42.8-6.2,54.4,12.1c11.7,18.4,6.2,42.8-12.1,54.5c-12.5,8-28.2,8.3-41,0.8
			c-1.6-0.9-3.5-1.2-5.3-0.7c-1.8,0.5-3.3,1.6-4.3,3.3c-0.9,1.6-1.2,3.5-0.7,5.3c0.5,1.8,1.6,3.3,3.2,4.3
			c17.4,10.1,38.7,9.7,55.6-1.1c12-7.7,20.4-19.6,23.5-33.5c3.1-14,0.6-28.3-7-40.4c-15.8-24.9-48.9-32.3-73.8-16.5
			c-12.1,7.7-20.4,19.6-23.5,33.5S582.8,80.2,590.4,92.2z"/>
		<path class="st0" d="M268.2,532l-99.5-99.6c-4-4-10.6-4-14.6,0L113.7,473c-2.7,2.7-2.7,7.2,0,9.9c2.7,2.7,7.2,2.7,9.9,0l37.9-37.9
			l94.2,94.3l-53.3,53.4c-20.4,20.4-53.5,20.4-73.8,0l-20.4-20.4c-20.4-20.4-20.4-53.5,0-73.9c2.7-2.7,2.7-7.2,0-9.9
			c-2.7-2.7-7.2-2.7-9.9,0c-25.8,25.9-25.8,67.9,0,93.8l20.4,20.4c25.8,25.9,67.8,25.9,93.7,0l56-56.1
			C272.2,542.6,272.2,536,268.2,532z"/>
		<path class="st0" d="M109.6,609.5c-0.9-1.6-2.5-2.8-4.3-3.3c-1.8-0.5-3.7-0.2-5.3,0.7c-1.6,0.9-2.8,2.5-3.3,4.3
			c-0.5,1.8-0.2,3.7,0.7,5.3c7.5,12.8,7.2,28.6-0.8,41.1c-11.7,18.4-36.1,23.8-54.4,12.2c-18.4-11.7-23.8-36.1-12.1-54.5
			c5.6-8.9,14.4-15.1,24.7-17.4c10.3-2.3,20.8-0.4,29.7,5.2c3.3,2.1,7.6,1.1,9.7-2.2c2-3.2,1-7.7-2.2-9.7
			c-12.1-7.7-26.4-10.2-40.3-7.1c-13.9,3.1-25.8,11.5-33.5,23.5c-13.7,21.5-10,49.2,7.3,66.6c2.7,2.7,5.8,5.2,9.1,7.3
			c12,7.7,26.3,10.2,40.3,7s25.8-11.5,33.5-23.5C119.3,648.2,119.7,626.9,109.6,609.5z"/>
		<path class="st0" d="M601.8,488.5c-2.7-2.7-7.2-2.7-9.9,0s-2.7,7.2,0,9.9c20.4,20.4,20.4,53.5,0,73.9l-20.4,20.4
			c-20.4,20.4-53.5,20.4-73.8,0l-53.3-53.4l94.2-94.3l37.9,37.9c2.7,2.7,7.2,2.7,9.9,0s2.7-7.2,0-9.9l-40.5-40.5c-4-4-10.6-4-14.6,0
			L431.8,532c-4,4-4,10.6,0,14.6l56,56c25.8,25.9,67.8,25.9,93.7,0l20.4-20.4C627.6,556.4,627.6,514.3,601.8,488.5z"/>
		<path class="st0" d="M681.7,607.7c-7.7-12.1-19.5-20.4-33.5-23.5c-13.9-3.1-28.3-0.6-40.3,7.1c-0.4,0.3-0.8,0.6-1.2,1
			c-2.3,2.3-2.7,5.9-1,8.7c1,1.6,2.6,2.7,4.4,3.1c1.8,0.4,3.7,0.1,5.3-0.9c8.9-5.7,19.4-7.5,29.7-5.2c10.3,2.3,19.1,8.5,24.7,17.4
			c11.7,18.4,6.2,42.8-12.1,54.5c-18.4,11.7-42.8,6.2-54.4-12.2c-7.9-12.5-8.2-28.3-0.8-41.1c1.9-3.3,0.8-7.7-2.5-9.6
			c-1.6-0.9-3.5-1.2-5.3-0.7c-1.8,0.5-3.3,1.6-4.3,3.3c-10.1,17.4-9.7,38.7,1.1,55.7c2.1,3.4,4.6,6.4,7.4,9.2
			c7.1,7.1,16.1,12.1,26.1,14.3c14,3.1,28.3,0.6,40.3-7C690.1,665.8,697.5,632.7,681.7,607.7z"/>
		<path class="st0" d="M168.7,268.6l99.5-99.6c4-4,4-10.6,0-14.6l-40.5-40.5c-2.7-2.7-7.2-2.7-9.9,0c-2.7,2.7-2.7,7.2,0,9.9
			l37.9,37.9L161.5,256l-53.3-53.4c-20.4-20.4-20.4-53.5,0-73.9l20.4-20.4c20.4-20.4,53.5-20.4,73.8,0c2.7,2.7,7.2,2.7,9.9,0
			s2.7-7.2,0-9.9c-25.8-25.9-67.8-25.9-93.7,0l-20.4,20.4c-25.8,25.9-25.8,67.9,0,93.8l56,56.1C158.2,272.6,164.7,272.6,168.7,268.6
			z"/>
		<path class="st0" d="M102.9,54.9c2.3,10.3,0.4,20.9-5.2,29.8c-1,1.6-1.3,3.5-0.9,5.3c0.4,1.8,1.5,3.4,3.1,4.4
			c2.8,1.8,6.4,1.4,8.7-1c0.4-0.4,0.7-0.8,1-1.2c7.7-12.1,10.2-26.4,7.1-40.4c-3.1-14-11.5-25.9-23.5-33.5
			c-24.9-15.8-58-8.4-73.8,16.5C5.7,56.3,9.3,84,26.6,101.4c2.7,2.7,5.8,5.2,9.1,7.3c16.9,10.8,38.3,11.2,55.6,1.1
			c1.6-0.9,2.8-2.5,3.3-4.3c0.5-1.8,0.2-3.7-0.7-5.3c-1.9-3.3-6.3-4.5-9.6-2.5c-12.8,7.5-28.5,7.2-41-0.8
			C25,85.2,19.5,60.7,31.2,42.3C42.8,24,67.2,18.5,85.6,30.2l0,0C94.5,35.9,100.6,44.6,102.9,54.9z M91.2,101.8L91.2,101.8
			L91.2,101.8L91.2,101.8z"/>
	</g>
</g>
<g id="Calque_1">
</g>
</svg>
