<?xml version="1.0" encoding="utf-8"?>
<!-- Generator: Adobe Illustrator 25.2.1, SVG Export Plug-In . SVG Version: 6.00 Build 0)  -->
<svg version="1.1" xmlns="http://www.w3.org/2000/svg" xmlns:xlink="http://www.w3.org/1999/xlink" x="0px" y="0px"
	 viewBox="0 0 700 700" style="enable-background:new 0 0 700 700;" xml:space="preserve">
<style type="text/css">
	.st0{fill:#E21E37;}
	.st1{opacity:0.11;}
	.st2{fill:#3D3D3D;}
	.st3{fill:#E11D38;}
	.st4{fill:none;stroke:#E11D38;stroke-width:17;stroke-linecap:round;stroke-miterlimit:10;}
</style>
<g id="Layer_1">
</g>
<g id="_x3C_Layer_x3E_">
</g>
<g id="Calque_1">
	<g>
		<path class="st3" d="M627.5,86.4c-2.9-3.5-8.1-4.1-11.7-1.2c-3.5,2.9-4.1,8.1-1.2,11.7c43,52.5,63.5,118.6,57.8,186.1
			c-5.7,67.4-37,129-88,173.4c-3.5,3-3.8,8.2-0.8,11.7c1.6,1.9,3.9,2.8,6.3,2.8c1.9,0,3.9-0.7,5.4-2
			c54.3-47.3,87.5-112.8,93.6-184.5C695.1,212.6,673.3,142.3,627.5,86.4z"/>
		<path class="st3" d="M594.1,268.1c-4.5-0.4-8.6,3-9,7.6c-4.8,56-34.2,106.4-80.7,138.1c-3.8,2.6-4.8,7.7-2.2,11.5
			c1.6,2.4,4.2,3.6,6.9,3.6c1.6,0,3.2-0.5,4.7-1.4c50.6-34.6,82.7-89.4,87.9-150.4C602.1,272.5,598.7,268.5,594.1,268.1z"/>
		<path class="st3" d="M581.9,221.3c0.8,3.9,4.3,6.6,8.1,6.6c0.6,0,1.1-0.1,1.7-0.2c4.5-0.9,7.4-5.3,6.4-9.8
			c-8.4-39.8-28.4-75.9-58-104.3c-3.3-3.2-8.6-3.1-11.7,0.2c-3.2,3.3-3.1,8.5,0.2,11.7C555.8,151.7,574.2,184.8,581.9,221.3z"/>
		<path class="st3" d="M457.9,149.2c-3.7-2.7-8.9-1.9-11.6,1.8c-2.7,3.7-1.9,8.9,1.8,11.6c33.6,24.6,51.6,64,48.1,105.5
			c-3.5,41.4-27.9,77.3-65.2,95.8c-4.1,2-5.8,7-3.7,11.1c1.5,2.9,4.4,4.6,7.4,4.6c1.2,0,2.5-0.3,3.7-0.9
			c42.5-21.2,70.3-62,74.3-109.3C516.7,222.2,496.3,177.3,457.9,149.2z"/>
		<path class="st3" d="M353.5,189.1c-4.4,1.2-7,5.8-5.8,10.2c14.5,53,5.7,110.7-24.1,158.3c-9.2,14.7-20.1,29.8-34.3,47.6
			c-27.5,34.5-49.1,92.6-60.3,135.6c-9.7,37.3-44.8,77.5-99.2,77.6c-11.6-0.6-67.3-7.5-81.6-84.2c-0.8-4.5-5.2-7.5-9.7-6.6
			c-4.5,0.8-7.5,5.2-6.6,9.7c6.8,36.7,23.1,63.9,48.3,80.9c21.5,14.4,42.9,16.5,49,16.8l0.4,0c63.3,0,104.2-46.6,115.4-90
			c10.7-41.3,31.3-96.9,57.2-129.4c14.5-18.3,25.8-33.9,35.3-49.1c32.3-51.5,41.8-114,26.1-171.4
			C362.5,190.5,357.9,187.9,353.5,189.1z"/>
		<path class="st3" d="M132.2,92.6c44.3-16.4,91.9-14.1,134,6.5c18.9,9.2,35.1,21.5,48.2,36.4c3,3.4,8.3,3.8,11.7,0.8
			c3.4-3,3.8-8.3,0.8-11.7c-14.5-16.6-32.5-30.2-53.4-40.4C227.2,61.5,175,59,126.4,77c-23.7,8.8-45.1,22-63.6,39.2
			c-19.1,17.9-34.1,39.2-44.5,63.3c-5.6,13.1-8,21.9-8.1,22.2c-1.2,4.4,1.5,9,5.9,10.1c0.7,0.2,1.4,0.3,2.1,0.3c3.7,0,7-2.4,8-6.2
			c0-0.1,2.2-8.1,7.3-19.9C52.4,142.4,87.4,109.1,132.2,92.6z"/>
		<path class="st3" d="M167.9,158.1c36.3-4.9,65.6,7.1,86.9,35.7c16.4,22.1,21.9,46.2,22,46.4c1,4.5,5.4,7.3,9.9,6.3
			c4.5-1,7.3-5.4,6.3-9.9c-0.2-1.1-6.2-27.4-24.5-52.3c-17.3-23.5-49.3-50-102.8-42.7c-31.4,4.3-57.8,23.6-70.6,51.7
			c-7.4,16.3-9.7,34.3-7,53.6c3.3,23,14,48,31.8,74.3l4.7,7l6.9-4.8c6.1-4.3,13.4-5.8,19.6-4.1c5.2,1.4,9.2,5.1,11.8,10.8
			c3.6,8.1,3.5,15.8-0.3,21.3c-3.1,4.5-8.4,6.8-14.4,6.4c-4.6-0.3-8.5,3.1-8.9,7.7c-0.3,4.6,3.1,8.5,7.7,8.9
			c0.9,0.1,1.8,0.1,2.7,0.1c10.8,0,20.6-4.9,26.6-13.5c7.3-10.4,7.9-24.1,1.8-37.7c-4.6-10.1-12.6-17.2-22.5-19.9
			c-8.3-2.3-17.6-1.4-26,2.3c-13.6-21.4-21.9-41.3-24.8-59.5c0.5-0.2,1.2-0.5,1.9-0.8c31.4-12.7,66.4-8,93.4,12.7
			c26.9,20.6,40.6,52.8,36.6,86.2c-3.4,28.5-14.8,47-33.9,54.8c-21,6.6-36,13.7-45.7,28.2c-2.5,3.8-1.5,9,2.3,11.5
			c1.4,0.9,3,1.4,4.6,1.4c2.7,0,5.3-1.3,6.9-3.7c6.2-9.3,16.2-15.1,37.2-21.7l0.6-0.2c24.9-10.1,40.3-33.7,44.4-68.4
			c4.7-39.3-11.3-77.2-43-101.3c-30.9-23.6-70.5-29.5-106.6-16.2c0.4-10,2.6-19.5,6.6-28.4C120.4,177.7,142.6,161.5,167.9,158.1z"/>
		<path class="st3" d="M79.4,434.3c-4.2-1.9-9.1,0-11,4.2c-10,22.4-6.2,38.9-1.2,48.8c6.7,13.3,19.6,22.9,35.6,26.4
			c3.5,0.8,6.9,1.2,10.2,1.2c8.4,0,16.4-2.4,23.5-7.2c12.4-8.4,21.3-23.8,24.2-42.2c0.7-4.5-2.3-8.8-6.9-9.5
			c-4.5-0.7-8.8,2.3-9.5,6.9c-2.3,13.9-8.5,25.3-17.2,31.2c-6.1,4.1-13.1,5.3-20.8,3.6c-11.1-2.5-19.9-8.9-24.4-17.7
			c-4.8-9.6-4.3-21.5,1.5-34.5C85.4,441,83.5,436.1,79.4,434.3z"/>
	</g>
</g>
</svg>
