<?xml version="1.0" encoding="utf-8"?>
<!-- Generator: Adobe Illustrator 25.2.1, SVG Export Plug-In . SVG Version: 6.00 Build 0)  -->
<svg version="1.1" xmlns="http://www.w3.org/2000/svg" xmlns:xlink="http://www.w3.org/1999/xlink" x="0px" y="0px"
	 viewBox="0 0 700 700" style="enable-background:new 0 0 700 700;" xml:space="preserve">
<style type="text/css">
	.st0{fill:#DF1D39;}
	.st1{fill:#E21E37;}
	.st2{opacity:0.11;}
	.st3{fill:#3D3D3D;}
	.st4{fill:#E11D38;}
	.st5{fill:none;stroke:#DF1D39;stroke-width:17;stroke-linecap:round;stroke-miterlimit:10;}
</style>
<g id="Layer_1">
	<g>
		<path class="st0" d="M85.7,425c-1.9-6.3-3.6-12.8-5-19.3c0-0.1,0-0.2-0.1-0.3c0-0.2-0.1-0.4-0.2-0.6c0-0.1-0.1-0.3-0.1-0.4
			c-0.1-0.1-0.1-0.3-0.2-0.4c-0.1-0.2-0.1-0.3-0.2-0.5c-0.1-0.1-0.1-0.2-0.2-0.3c-0.1-0.2-0.2-0.3-0.3-0.5c-0.1-0.1-0.1-0.2-0.2-0.3
			c-0.1-0.1-0.2-0.3-0.3-0.4c-0.1-0.1-0.2-0.2-0.3-0.3c-0.1-0.1-0.2-0.2-0.3-0.3c-0.1-0.1-0.2-0.2-0.3-0.4c-0.1-0.1-0.2-0.2-0.3-0.3
			c-0.1-0.1-0.3-0.2-0.4-0.4c-0.1-0.1-0.2-0.1-0.3-0.2c-0.2-0.1-0.3-0.2-0.5-0.3c-0.1-0.1-0.2-0.1-0.3-0.2c-0.2-0.1-0.3-0.2-0.5-0.3
			c-0.1-0.1-0.2-0.1-0.4-0.2c-0.1-0.1-0.3-0.1-0.4-0.2c-0.2-0.1-0.3-0.1-0.5-0.2c-0.1,0-0.2-0.1-0.3-0.1l-42.8-13.2l-2.3-56.3
			l42.7-17.9c3.2-1.4,5.3-4.3,5.7-7.6c0.2-0.6,0.4-1.2,0.5-1.9c5.6-36.1,17.9-69.1,37.7-100.8l6.1-9.5l-22.3-44.4l39-40.7l39,17
			c4.1,1.8,8.9,1.3,12.5-1.3l3.2-2.3c29.7-20.5,62.6-34.7,97.8-42.3c2-0.4,3.9-1.3,5.5-2.6c1.6-1.3,2.9-2.9,3.7-4.8l17.8-39H375
			l20.7,55.9c1.8,4.8,7.2,7.3,12,5.5c4.8-1.8,7.3-7.2,5.5-12l-22.2-59.9c-1.8-5-6.6-8.3-11.9-8.3h-64.8c-5.2,0-9.9,3.2-11.8,8
			l-18,39.4c-36.6,8.2-70.8,23.2-101.9,44.7L182,105l-48-20.8l-57.2,59.6l23.5,46.7l-0.4,0.6C79.3,224.2,66.3,258.6,60.1,296L10,317
			l3.4,82.6l50.3,15.5c1.2,5.1,2.6,10.2,4.1,15.2c1.2,4.1,4.9,6.7,9,6.7c0.9,0,1.8-0.1,2.7-0.4C84.4,435.1,87.2,429.9,85.7,425z"/>
		<path class="st0" d="M420.6,603c-5-1.2-10.1,1.8-11.3,6.9l-11.8,47.8l-56.1,4.7l-17.6-37.5c0,0,0-0.1-0.1-0.1
			c-0.1-0.2-0.2-0.3-0.3-0.5c-0.1-0.1-0.1-0.2-0.2-0.3c-0.1-0.1-0.2-0.3-0.3-0.4c-0.1-0.1-0.2-0.3-0.3-0.4c-0.1-0.1-0.2-0.2-0.3-0.3
			c-0.1-0.1-0.2-0.3-0.3-0.4c-0.1-0.1-0.2-0.2-0.3-0.3c-0.1-0.1-0.2-0.2-0.4-0.4c-0.1-0.1-0.2-0.2-0.3-0.3c-0.1-0.1-0.2-0.2-0.4-0.3
			c-0.1-0.1-0.3-0.2-0.4-0.3c-0.1-0.1-0.2-0.1-0.3-0.2c-0.2-0.1-0.3-0.2-0.5-0.3c-0.1,0-0.2-0.1-0.3-0.1c-0.2-0.1-0.3-0.1-0.5-0.2
			c-0.1,0-0.2-0.1-0.3-0.1c-0.2-0.1-0.3-0.1-0.5-0.2c-0.1,0-0.3-0.1-0.4-0.1c-0.1,0-0.3-0.1-0.4-0.1c-0.2,0-0.3-0.1-0.5-0.1
			c-0.1,0-0.1,0-0.2,0c-40.6-4.8-78.7-18.3-113.3-40.1c0,0,0,0-0.1,0c0,0,0,0,0,0c0,0,0,0,0,0c-0.3-0.2-0.5-0.3-0.8-0.4
			c-0.1-0.1-0.2-0.1-0.3-0.1c-0.2-0.1-0.3-0.2-0.5-0.2c-0.1-0.1-0.3-0.1-0.4-0.1c-0.1,0-0.3-0.1-0.4-0.1c-0.2,0-0.3-0.1-0.5-0.1
			c-0.1,0-0.3-0.1-0.4-0.1c-0.1,0-0.3,0-0.4-0.1c-0.2,0-0.3,0-0.5-0.1c-0.1,0-0.2,0-0.4,0c-0.2,0-0.4,0-0.6,0c-0.1,0-0.2,0-0.3,0
			c-0.2,0-0.4,0-0.6,0.1c-0.1,0-0.2,0-0.2,0c-0.2,0-0.4,0.1-0.7,0.1c-0.1,0-0.2,0-0.2,0.1c-0.2,0.1-0.4,0.1-0.6,0.2
			c-0.1,0-0.2,0.1-0.3,0.1c-0.2,0.1-0.3,0.1-0.5,0.2c-0.2,0.1-0.4,0.2-0.6,0.3c-0.1,0-0.1,0.1-0.2,0.1l0,0c0,0,0,0,0,0l-36.9,20.5
			l-42.3-37.3l16.2-42c0,0,0-0.1,0-0.1c0.1-0.2,0.1-0.4,0.2-0.5c0-0.1,0.1-0.2,0.1-0.4c0-0.2,0.1-0.3,0.1-0.5c0-0.1,0.1-0.3,0.1-0.4
			c0-0.1,0-0.3,0-0.4c0-0.2,0-0.3,0-0.5c0-0.1,0-0.3,0-0.4c0-0.2,0-0.3,0-0.5c0-0.1,0-0.3,0-0.4c0-0.2,0-0.3,0-0.5
			c0-0.2-0.1-0.3-0.1-0.5c0-0.1,0-0.2-0.1-0.4c0-0.2-0.1-0.4-0.2-0.5c0-0.1-0.1-0.2-0.1-0.3c-0.1-0.2-0.1-0.4-0.2-0.5
			c0-0.1-0.1-0.2-0.1-0.3c-0.1-0.2-0.1-0.3-0.2-0.4c-0.1-0.1-0.1-0.3-0.2-0.4c-0.1-0.1-0.1-0.2-0.2-0.4c-0.1-0.1-0.2-0.3-0.3-0.4
			c0,0-0.1-0.1-0.1-0.1c-11.6-15.5-21.6-32.3-29.7-49.8c-2.2-4.7-7.7-6.7-12.4-4.6c-4.7,2.2-6.7,7.7-4.6,12.4
			c7.9,17.2,17.6,33.6,28.7,49l-19.1,49.4l62,54.7l43.8-24.3c34.2,20.6,71.6,33.8,111.2,39.2l20.9,44.7l82.5-6.9l15-60.9
			C428.7,609.3,425.7,604.2,420.6,603z"/>
		<path class="st0" d="M290.6,240.9c4.6-2.3,6.5-7.9,4.2-12.5c-2.3-4.6-7.9-6.5-12.5-4.2c-22.3,11.1-41,28-54.4,49.1
			c-13.7,21.6-20.9,46.6-20.9,72.3c0,25.7,7.2,50.7,20.9,72.3c13.3,21,32.1,38,54.4,49.1c1.3,0.7,2.8,1,4.2,1c3.4,0,6.8-1.9,8.4-5.2
			c2.3-4.6,0.4-10.2-4.2-12.5c-40-19.9-64.9-60-64.9-104.6C225.7,300.9,250.5,260.8,290.6,240.9z"/>
		<path class="st0" d="M647.4,302.3c-20.7,0-38,14.8-41.8,34.4H356.7v-41h98.8l40.2-42h18.7c4.2,19.1,21.2,33.5,41.6,33.5
			c23.5,0,42.6-19.1,42.6-42.6c0-23.5-19.1-42.6-42.6-42.6c-20.1,0-37.1,14.1-41.5,32.9h-26.8l-40.2,42h-90.8v-40.4h78.5l72-69.4
			v-35.8c19.1-4.2,33.5-21.2,33.5-41.6c0-23.5-19.1-42.6-42.6-42.6s-42.6,19.1-42.6,42.6c0,20.1,14.1,37.1,32.9,41.5v28L427.6,218
			h-71v-85.9h-9.4c-86,0-163.2,51.2-196.7,130.4c-2,4.8,0.2,10.3,5,12.3c4.8,2,10.3-0.2,12.3-5C197.2,200.3,263.3,154.5,338,151
			v389.1c-103.1-4.9-185.4-90.3-185.4-194.5c0-5.2-4.2-9.4-9.4-9.4c-5.2,0-9.4,4.2-9.4,9.4c0,117.7,95.8,213.5,213.5,213.5h9.4
			v-87.1h71l60.8,58.6v28c-18.8,4.4-32.9,21.3-32.9,41.5c0,23.5,19.1,42.6,42.6,42.6s42.6-19.1,42.6-42.6
			c0-20.4-14.4-37.4-33.5-41.6v-35.8l-72-69.4h-78.5v-40.4h90.8l40.2,42h26.8c4.4,18.8,21.3,32.9,41.5,32.9
			c23.5,0,42.6-19.1,42.6-42.6c0-23.5-19.1-42.6-42.6-42.6c-20.4,0-37.4,14.4-41.6,33.5h-18.7l-40.2-42h-98.8v-38.6h249.5
			c4.7,18.4,21.4,32,41.2,32c23.5,0,42.6-19.1,42.6-42.6C690,321.4,670.9,302.3,647.4,302.3z M556,220.8c13.2,0,23.9,10.7,23.9,23.9
			c0,13.2-10.7,23.9-23.9,23.9s-23.9-10.7-23.9-23.9C532.2,231.5,542.9,220.8,556,220.8z M474.3,89.9c0-13.2,10.7-23.9,23.9-23.9
			c13.2,0,23.9,10.7,23.9,23.9s-10.7,23.9-23.9,23.9C485,113.8,474.3,103.1,474.3,89.9z M522,599.9c0,13.2-10.7,23.9-23.9,23.9
			c-13.2,0-23.9-10.7-23.9-23.9c0-13.2,10.7-23.9,23.9-23.9C511.3,576.1,522,586.8,522,599.9z M556,421.3
			c13.2,0,23.9,10.7,23.9,23.9c0,13.2-10.7,23.9-23.9,23.9s-23.9-10.7-23.9-23.9C532.2,432,542.9,421.3,556,421.3z M647.4,368.8
			c-13.2,0-23.9-10.7-23.9-23.9s10.7-23.9,23.9-23.9s23.9,10.7,23.9,23.9S660.6,368.8,647.4,368.8z"/>
	</g>
</g>
<g id="_x3C_Layer_x3E_">
</g>
<g id="Calque_1">
</g>
</svg>
