<?xml version="1.0" encoding="utf-8"?>
<!-- Generator: Adobe Illustrator 25.2.1, SVG Export Plug-In . SVG Version: 6.00 Build 0)  -->
<svg version="1.1" xmlns="http://www.w3.org/2000/svg" xmlns:xlink="http://www.w3.org/1999/xlink" x="0px" y="0px"
	 viewBox="0 0 700 700" style="enable-background:new 0 0 700 700;" xml:space="preserve">
<style type="text/css">
	.st0{opacity:0.11;}
	.st1{fill:#3D3D3D;}
	.st2{fill:#E21E37;}
	.st3{fill:#E11D38;}
	.st4{fill:none;stroke:#DF1D39;stroke-width:17;stroke-linecap:round;stroke-miterlimit:10;}
	.st5{fill:#DF1D39;}
</style>
<g id="Layer_1">
</g>
<g id="_x3C_Layer_x3E_">
</g>
<g id="Calque_1">
</g>
<g id="Capa_1">
	<g>
		<path class="st5" d="M637.4,166.1c-5.2,0-9.3,4.2-9.3,9.3c0,5.2,4.2,9.3,9.3,9.3c18.7,0,33.9,15.2,33.9,33.9v102.9H441.1
			c-12.2-39.3-49-67.9-92.2-67.9c-53.3,0-96.6,43.3-96.6,96.6c0,4.4,0.3,8.7,0.9,12.9H28.7v-22.9h197.2c5.2,0,9.3-4.2,9.3-9.3
			s-4.2-9.3-9.3-9.3H28.7V218.7c0-18.7,15.2-33.9,33.9-33.9h517.1c5.2,0,9.3-4.2,9.3-9.3c0-5.2-4.2-9.3-9.3-9.3h-75.8v-47.5
			c0-16.1-13.1-29.2-29.2-29.2H225.3c-16.1,0-29.2,13.1-29.2,29.2v47.5H62.6c-29,0-52.6,23.6-52.6,52.6v360.2
			c0,29,23.6,52.6,52.6,52.6c5.2,0,9.3-4.2,9.3-9.3c0-5.2-4.2-9.3-9.3-9.3c-18.7,0-33.9-15.2-33.9-33.9V381.8h229
			c6.1,17.7,17.2,33,31.6,44.3v102.3c0,7,3.6,13.3,9.6,17c3.2,1.9,6.7,2.9,10.2,2.9c3.2,0,6.3-0.8,9.2-2.3l30.6-16.1l30.6,16.1
			c6.2,3.3,13.5,3,19.5-0.6c6-3.6,9.6-10,9.6-17V426.2c22.5-17.7,36.9-45.2,36.9-75.9c0-3.4-0.2-6.7-0.5-10h226.4v22.9H479
			c-5.2,0-9.3,4.2-9.3,9.3s4.2,9.3,9.3,9.3h192.3v197.1c0,18.7-15.2,33.9-33.9,33.9H117.8c-5.2,0-9.3,4.2-9.3,9.3
			c0,5.2,4.2,9.3,9.3,9.3h519.6c29,0,52.6-23.6,52.6-52.6V218.7C690,189.7,666.4,166.1,637.4,166.1z M214.8,118.6
			c0-5.8,4.7-10.5,10.5-10.5h249.3c5.8,0,10.5,4.7,10.5,10.5v47.5H214.8V118.6z M389.9,528.4c0,0.2,0,0.7-0.6,1
			c-0.6,0.3-1,0.1-1.1,0l-39.3-20.7l-39.3,20.7c-0.2,0.1-0.6,0.3-1.1,0c-0.6-0.3-0.6-0.8-0.6-1v-90.7c12.4,5.9,26.3,9.1,41,9.1
			s28.5-3.3,41-9.1V528.4z M348.9,428.2c-43,0-77.9-35-77.9-77.9c0-43,35-77.9,77.9-77.9s77.9,35,77.9,77.9
			C426.8,393.2,391.9,428.2,348.9,428.2z"/>
		<path class="st5" d="M348.9,306.8c-23.9,0-43.4,19.5-43.4,43.4c0,23.9,19.5,43.4,43.4,43.4c23.9,0,43.4-19.5,43.4-43.4
			C392.3,326.3,372.8,306.8,348.9,306.8z M348.9,375c-13.6,0-24.7-11.1-24.7-24.7c0-13.6,11.1-24.7,24.7-24.7s24.7,11.1,24.7,24.7
			C373.6,363.9,362.5,375,348.9,375z"/>
	</g>
</g>
</svg>
