<?xml version="1.0" encoding="utf-8"?>
<!-- Generator: Adobe Illustrator 25.2.1, SVG Export Plug-In . SVG Version: 6.00 Build 0)  -->
<svg version="1.1" xmlns="http://www.w3.org/2000/svg" xmlns:xlink="http://www.w3.org/1999/xlink" x="0px" y="0px"
	 viewBox="0 0 512 512" style="enable-background:new 0 0 512 512;" xml:space="preserve">
<style type="text/css">
	.st0{fill:#DE1E3A;}
</style>
<g id="Capa_1">
</g>
<g id="Layer_3">
	<g>
		<path class="st0" d="M107.4,181.7h297.3c4.6,0,8.3-3.7,8.3-8.3V41.3c0-4.6-3.7-8.3-8.3-8.3H107.4c-4.6,0-8.3,3.7-8.3,8.3v132.1
			C99.1,178,102.8,181.7,107.4,181.7z M115.6,49.5h280.8v115.6H115.6V49.5z"/>
		<path class="st0" d="M503.7,280.8h-16.5c-4.6,0-8.3,3.7-8.3,8.3v0c0,4.6,3.7,8.3,8.3,8.3h16.5c4.6,0,8.3-3.7,8.3-8.3v0
			C512,284.5,508.3,280.8,503.7,280.8z"/>
		<path class="st0" d="M490.6,256l13.1-13.1c3.2-3.2,3.2-8.5,0-11.7c-3.2-3.2-8.5-3.2-11.7,0l-13.1,13.1c-3.2,3.2-3.2,8.5,0,11.7
			C482.1,259.2,487.3,259.2,490.6,256z"/>
		<path class="st0" d="M490.6,322.1c-3.2-3.2-8.5-3.2-11.7,0l0,0c-3.2,3.2-3.2,8.5,0,11.7l13.1,13.1c3.2,3.2,8.5,3.2,11.7,0
			c3.2-3.2,3.2-8.5,0-11.7L490.6,322.1z"/>
		<path class="st0" d="M107.4,363.4h132.1c4.6,0,8.3-3.7,8.3-8.3V206.5c0-4.6-3.7-8.3-8.3-8.3H107.4c-4.6,0-8.3,3.7-8.3,8.3v148.6
			C99.1,359.7,102.8,363.4,107.4,363.4z M115.6,214.7h115.6v132.1H115.6V214.7z"/>
		<path class="st0" d="M272.5,379.9H107.4c-4.6,0-8.3,3.7-8.3,8.3c0,4.6,3.7,8.3,8.3,8.3h165.2c4.6,0,8.3-3.7,8.3-8.3
			C280.8,383.6,277.1,379.9,272.5,379.9z"/>
		<path class="st0" d="M272.5,412.9H107.4c-4.6,0-8.3,3.7-8.3,8.3c0,4.6,3.7,8.3,8.3,8.3h165.2c4.6,0,8.3-3.7,8.3-8.3
			C280.8,416.6,277.1,412.9,272.5,412.9z"/>
		<path class="st0" d="M272.5,445.9H107.4c-4.6,0-8.3,3.7-8.3,8.3s3.7,8.3,8.3,8.3h165.2c4.6,0,8.3-3.7,8.3-8.3
			S277.1,445.9,272.5,445.9z"/>
		<path class="st0" d="M174.6,74.7c-1.8,0-3.2,0.6-4.2,1.8c-1.1,1.2-1.6,3.1-1.6,5.5v37.6l-24.6-37.3c-0.7-1.1-1.4-2.1-2-3.1
			c-0.6-1-1.3-1.8-1.9-2.5c-0.6-0.6-1.3-1.1-2.2-1.5c-0.8-0.4-1.8-0.6-3-0.6c-1.5,0-2.8,0.4-4.1,1.2c-1.3,0.8-2.2,1.9-2.7,3.2
			c-0.5,1.2-0.7,2.8-0.7,4.9v48.8c0,2.4,0.5,4.2,1.6,5.5c1.1,1.2,2.5,1.9,4.4,1.9c1.8,0,3.2-0.6,4.3-1.9c1.1-1.2,1.7-3.1,1.7-5.5
			V95.7l24,36.8c0.7,1,1.4,2,2.1,3c0.7,1,1.4,1.8,2.2,2.5c0.8,0.7,1.7,1.2,2.6,1.6c0.9,0.3,2,0.5,3.1,0.5c4.6,0,6.9-2.8,6.9-8.3V82
			c0-2.4-0.5-4.3-1.6-5.5C177.9,75.3,176.4,74.7,174.6,74.7z"/>
		<path class="st0" d="M237.2,128.8h-29.8v-18h26.6c2,0,3.5-0.5,4.4-1.4c0.9-0.9,1.4-2.1,1.4-3.5c0-1.4-0.5-2.6-1.4-3.5
			c-1-0.9-2.4-1.3-4.4-1.3h-26.6V85.6h28.9c2,0,3.6-0.5,4.6-1.4c1-0.9,1.5-2.1,1.5-3.6c0-1.5-0.5-2.7-1.5-3.6
			c-1-0.9-2.5-1.4-4.6-1.4h-33.8c-1.8,0-3.3,0.3-4.5,0.8c-1.2,0.5-2,1.4-2.6,2.5c-0.5,1.2-0.8,2.7-0.8,4.5v47.5c0,2.8,0.6,4.8,1.8,6
			c1.2,1.2,3.2,1.9,6,1.9h34.8c2,0,3.5-0.5,4.6-1.4s1.5-2.1,1.5-3.6c0-1.6-0.5-2.8-1.5-3.7C240.7,129.3,239.2,128.8,237.2,128.8z"/>
		<path class="st0" d="M321.8,74.7c-1.7,0-2.9,0.4-3.8,1.3c-0.9,0.9-1.5,1.8-1.9,2.9c-0.4,1.1-0.7,2.6-1.1,4.5l-8.3,36.9l-9.4-34.6
			c-0.8-2.8-1.4-4.9-1.9-6.1c-0.5-1.2-1.3-2.4-2.5-3.4c-1.2-1-2.9-1.6-5-1.6c-2.1,0-3.8,0.5-5,1.5c-1.2,1-2.1,2.2-2.7,3.6
			c-0.5,1.4-1.2,3.4-1.9,6l-9.3,34.6l-8.3-36.9c-0.6-2.8-1.3-5-2.1-6.5c-0.8-1.5-2.4-2.2-4.7-2.2c-1.7,0-3.1,0.6-4.3,1.7
			c-1.2,1.1-1.7,2.5-1.7,4.1c0,1.3,0.3,3.2,0.9,5.7l10.5,42.6c0.3,1.3,0.7,2.6,1.1,4.1c0.4,1.5,0.9,2.8,1.6,3.8
			c0.6,1.1,1.5,1.9,2.5,2.5c1,0.6,2.3,0.9,3.9,0.9c2,0,3.5-0.5,4.7-1.5c1.2-1,2-2.1,2.5-3.4c0.5-1.3,1.1-3.3,1.9-6.2L288,91.1
			l10.2,37.9c0.8,3,1.5,5.1,1.9,6.3c0.5,1.2,1.3,2.3,2.5,3.3c1.2,1,2.7,1.5,4.7,1.5c2.1,0,3.7-0.5,4.8-1.5c1.1-1,1.9-2.2,2.4-3.5
			c0.5-1.3,1.1-3.4,1.8-6.3l10.5-42.6c0.6-2.6,0.9-4.5,0.9-5.7c0-1.7-0.6-3.1-1.7-4.2C324.9,75.2,323.5,74.7,321.8,74.7z"/>
		<path class="st0" d="M377.9,106.4c-2-1.4-4.5-2.7-7.4-3.7c-2.9-1-6.1-1.9-9.7-2.8c-2.8-0.7-4.9-1.3-6.1-1.6s-2.5-0.9-3.7-1.6
			c-1.2-0.7-2.2-1.5-2.8-2.4c-0.7-0.9-1-2-1-3.3c0-2,1-3.8,3-5.2c2-1.5,4.7-2.2,8-2.2c3.6,0,6.2,0.7,7.8,2c1.6,1.3,3,3.2,4.1,5.6
			c0.9,1.7,1.7,2.9,2.5,3.6c0.8,0.7,1.9,1.1,3.3,1.1c1.6,0,3-0.6,4-1.8c1.1-1.2,1.6-2.6,1.6-4.1c0-1.7-0.4-3.4-1.3-5.1
			c-0.9-1.8-2.2-3.4-4.1-5c-1.9-1.6-4.2-2.9-7.1-3.8c-2.8-1-6.2-1.4-10.1-1.4c-4.9,0-9.1,0.7-12.7,2.2c-3.6,1.5-6.3,3.5-8.2,6.2
			c-1.9,2.7-2.8,5.8-2.8,9.3c0,3.7,0.9,6.7,2.7,9.2c1.8,2.5,4.2,4.4,7.3,5.8c3.1,1.4,6.9,2.7,11.4,3.7c3.4,0.8,6.1,1.5,8.1,2.2
			s3.7,1.7,5,3c1.3,1.3,1.9,3,1.9,5.1c0,2.6-1.2,4.9-3.6,6.6c-2.4,1.8-5.5,2.7-9.3,2.7c-2.8,0-5-0.4-6.7-1.3c-1.7-0.9-3-2-3.9-3.3
			c-0.9-1.4-1.8-3-2.6-5c-0.7-1.7-1.5-3-2.4-3.8c-0.9-0.9-2.1-1.3-3.4-1.3c-1.7,0-3,0.6-4.1,1.7c-1.1,1.1-1.6,2.4-1.6,4
			c0,2.7,0.9,5.4,2.7,8.3c1.8,2.8,4.1,5.1,7,6.8c4.1,2.4,9.2,3.5,15.4,3.5c5.2,0,9.7-0.9,13.5-2.6c3.8-1.7,6.7-4.1,8.6-7.2
			c2-3,3-6.5,3-10.3c0-3.2-0.6-5.9-1.7-8.1C381.5,109.7,380,107.9,377.9,106.4z"/>
		<path class="st0" d="M449.5,183.2l-3.5,2.5V8.3c0-4.6-3.7-8.3-8.3-8.3H74.3c-4.6,0-8.3,3.7-8.3,8.3v41.3H8.3
			c-4.6,0-8.3,3.7-8.3,8.3v103.5c0,4.6,3.7,8.3,8.3,8.3s8.3-3.7,8.3-8.3V66.1h49.5v404c0,13.9-11.3,25.7-25.2,25.4
			c-13.5-0.2-24.4-11.2-24.4-24.8V202.3c0-4.6-3.7-8.3-8.3-8.3S0,197.8,0,202.3v268.4C0,493.5,18.5,512,41.3,512h346.8
			c31.9,0,57.8-25.9,57.8-57.8v-28.7l3.5,2.5c1.4,1,3.1,1.5,4.7,1.5c1.3,0,2.6-0.3,3.8-0.9c2.7-1.4,4.4-4.2,4.4-7.3v-231
			c0-2.4-0.9-4.7-2.6-6.3C456.9,181.2,452.6,181,449.5,183.2z M429.4,454.2c0,22.8-18.5,41.3-41.3,41.3h-314
			c5.2-6.9,8.5-15.4,8.5-24.8V16.5h346.8v180.7L369,239.5h-55.2c-27.3,0-49.5,22.2-49.5,49.5v33c0,21.5,13.8,39.8,33,46.7v60.7
			c0,18.2,14.8,33,33,33c18.2,0,33-14.8,33-33v-57.8h5.7l60.4,42.3V454.2z M412.9,228.9v153.3l-33-23.1V252L412.9,228.9z
			 M313.8,355.1c-18.2,0-33-14.8-33-33v-33c0-18.2,14.8-33,33-33h49.5v99.1H313.8z M346.8,371.6v57.8c0,9.1-7.4,16.5-16.5,16.5
			c-9.1,0-16.5-7.4-16.5-16.5v-57.8H346.8z M445.9,405.3l-16.5-11.6V217.4l16.5-11.6V405.3z"/>
	</g>
</g>
</svg>
