<?xml version="1.0" encoding="utf-8"?>
<!-- Generator: Adobe Illustrator 25.2.1, SVG Export Plug-In . SVG Version: 6.00 Build 0)  -->
<svg version="1.1" xmlns="http://www.w3.org/2000/svg" xmlns:xlink="http://www.w3.org/1999/xlink" x="0px" y="0px"
	 viewBox="0 0 649.6 521" style="enable-background:new 0 0 649.6 521;" xml:space="preserve">
<style type="text/css">
	.st0{fill:#DE1E3A;}
</style>
<g id="Capa_1">
</g>
<g id="Layer_3">
	<g>
		<path class="st0" d="M626.3,54.1h-14.9v-8.7c0-12.2-10.4-21.8-22.5-20.8c-14,1.1-44.8,1.2-92.9-11c-5.1-1.3-10.3,1.8-11.6,6.9
			c-1.3,5.1,1.8,10.3,6.9,11.6c48.3,12.2,80.6,13,99.1,11.5c1.1-0.1,2,0.8,2,1.9v384c-36,3.9-84.2-6.4-119.1-16.9
			c-78-23.5-128.4,16.9-139,22.6V54.7c10.3-9.6,51.7-43.8,113.4-33.9c5.2,0.8,10.1-2.7,10.9-7.9c0.8-5.2-2.7-10.1-7.9-10.9
			C386-8.4,341.3,23.3,324.8,37.7c-37.9-32.8-92-47.4-148.5-30.4C115.6,25.6,77.8,26,60.7,24.6c-12.2-1-22.5,8.7-22.5,20.8v8.7H23.2
			C10.4,54.1,0,64.5,0,77.3v385.9c0,12.8,10.4,23.2,23.2,23.2h246.5c3.7,0,7,2,8.5,5.2c18.5,39.1,74.4,39.2,92.9,0
			c1.5-3.2,4.8-5.2,8.5-5.2h246.5c12.8,0,23.2-10.4,23.2-23.2V282.8c0-5.3-4.3-9.5-9.5-9.5s-9.5,4.3-9.5,9.5v180.5
			c0,2.3-1.9,4.2-4.2,4.2H379.8c-11,0-21.1,6.3-25.7,16.1c-11.6,24.6-46.8,24.7-58.5,0c-4.6-9.8-14.7-16.1-25.7-16.1H23.2
			c-2.3,0-4.2-1.9-4.2-4.2V77.3c0-2.3,1.9-4.2,4.2-4.2h14.9v364.4c0,4.3,2.9,8.1,7.1,9.2c1.8,0.5,45.4,11.4,136.5-16
			c44.1-13.3,86.7-5.1,120.4,18.7c13.1,9.2,31.2,9.8,45.2,0c20.4-14.4,63.2-35.9,120.4-18.7c91.2,27.5,134.7,16.5,136.5,16
			c4.2-1.1,7.1-4.9,7.1-9.2V73.1h14.9c2.3,0,4.2,1.9,4.2,4.2v161c0,5.3,4.3,9.5,9.5,9.5c5.3,0,9.5-4.3,9.5-9.5v-161
			C649.6,64.5,639.1,54.1,626.3,54.1z M57.2,45.4c0-1.1,0.9-1.9,2-1.9c18.5,1.5,59,1.1,122.6-18.1c51.5-15.5,100.7-1.5,133.5,29.2
			v380.3c-5.5-3-59-46.8-139-22.6c-5.1,1.5-10.8,3.2-16,4.5c-0.1,0-0.1,0-0.2,0.1c-30.6,8.2-71.4,15.8-102.9,12.4
			C57.2,403,57.2,52.5,57.2,45.4L57.2,45.4z"/>
	</g>
</g>
</svg>
