<?xml version="1.0" encoding="utf-8"?>
<!-- Generator: Adobe Illustrator 25.2.1, SVG Export Plug-In . SVG Version: 6.00 Build 0)  -->
<svg version="1.1" xmlns="http://www.w3.org/2000/svg" xmlns:xlink="http://www.w3.org/1999/xlink" x="0px" y="0px"
	 viewBox="0 0 54.04 54" style="enable-background:new 0 0 54.04 54;" xml:space="preserve">
<style type="text/css">
	.st0{fill:#E21F37;}
	.st1{fill:#EA2B2C;}
	.st2{fill:#EA2C2D;}
	.st3{fill:#060605;}
	.st4{fill:#E73632;}
	.st5{fill:#FFFFFF;}
	.st6{fill:#FFFFFF;stroke:#E21F37;stroke-width:10;stroke-miterlimit:10;}
	.st7{fill:none;stroke:#E21F37;stroke-width:10;stroke-miterlimit:10;}
	.st8{fill:none;stroke:#E21F37;stroke-width:6;stroke-miterlimit:10;}
	.st9{fill:none;stroke:#E21F37;stroke-width:6;stroke-linecap:round;stroke-miterlimit:10;}
	.st10{fill:#010101;}
	.st11{fill:#E31F36;}
	.st12{fill:none;stroke:#010101;stroke-miterlimit:10;}
	.st13{fill:#FFFFFF;stroke:#E21F37;stroke-width:6;stroke-miterlimit:10;}
	.st14{fill:#FFFFFF;stroke:#E21F37;stroke-width:6;stroke-linecap:round;stroke-miterlimit:10;}
	.st15{fill:#FFFFFF;stroke:#E21F37;stroke-width:4;stroke-miterlimit:10;}
</style>
<g id="Layer_1">
	<g>
		<path class="st0" d="M26.85,15.07c-4.25,0-7.71,3.46-7.71,7.71c0,4.25,3.46,7.71,7.71,7.71c4.25,0,7.71-3.46,7.71-7.71
			C34.56,18.53,31.1,15.07,26.85,15.07z M33.19,22.11h-1.92c-0.09-1.94-0.58-3.66-1.33-4.91C31.72,18.19,32.97,20,33.19,22.11z
			 M26.19,16.55v5.56h-2.42C23.92,19.67,24.84,17.19,26.19,16.55z M26.19,23.44V29c-1.34-0.63-2.27-3.12-2.42-5.56H26.19z M27.52,29
			v-5.56h2.42C29.79,25.88,28.86,28.36,27.52,29z M27.52,22.11v-5.56c1.34,0.63,2.27,3.12,2.42,5.56H27.52z M23.76,17.2
			c-0.75,1.25-1.24,2.97-1.33,4.91h-1.92C20.73,20,21.99,18.19,23.76,17.2z M20.51,23.44h1.92c0.09,1.94,0.58,3.66,1.33,4.91
			C21.99,27.36,20.73,25.55,20.51,23.44z M29.94,28.35c0.75-1.25,1.24-2.97,1.33-4.91h1.92C32.97,25.55,31.72,27.36,29.94,28.35z"/>
		<path class="st0" d="M26.85,38.83l-0.42-0.21c-1.34-0.67-2.65-1.53-3.89-2.54c-5.34-4.37-8.41-10.94-8.41-18.02v-3.66
			c0-1.53,1.15-2.84,2.67-3.06c4.15-0.6,7.18-2.01,8.62-2.8l0,0c0.9-0.49,1.97-0.49,2.86,0c1.44,0.79,4.47,2.2,8.62,2.8
			c1.52,0.22,2.67,1.54,2.67,3.06v3.65c0,7-3,13.52-8.24,17.89c-1.29,1.08-2.65,1.98-4.06,2.68L26.85,38.83z M26.85,10.05
			c-0.18,0-0.36,0.05-0.53,0.14h0c-1.55,0.85-4.81,2.37-9.25,3.01c-0.61,0.09-1.06,0.6-1.06,1.21v3.66c0,6.51,2.81,12.55,7.72,16.57
			c1,0.82,2.05,1.52,3.12,2.09c1.13-0.6,2.23-1.35,3.28-2.22c4.81-4.01,7.56-10.01,7.56-16.45v-3.65c0-0.61-0.45-1.12-1.06-1.21
			c-4.44-0.65-7.7-2.17-9.25-3.01C27.22,10.1,27.03,10.05,26.85,10.05z"/>
		<path class="st0" d="M40.55,52c-0.25,0-0.51-0.07-0.73-0.21c-0.43-0.26-0.69-0.71-0.69-1.21v-7.03h1.46v6.97l2.59-1.36l2.59,1.36
			v-6.97h1.46v7.03c0,0.5-0.26,0.96-0.69,1.22c-0.43,0.26-0.95,0.27-1.39,0.04l-1.97-1.03l-1.97,1.03C41,51.95,40.77,52,40.55,52z"
			/>
		<path class="st0" d="M43.18,41.81c-1.64,0-2.97-1.33-2.97-2.97c0-1.64,1.33-2.97,2.97-2.97c1.64,0,2.97,1.33,2.97,2.97
			C46.15,40.47,44.82,41.81,43.18,41.81z M43.18,37.31c-0.84,0-1.52,0.68-1.52,1.52s0.68,1.52,1.52,1.52s1.52-0.68,1.52-1.52
			S44.01,37.31,43.18,37.31z"/>
		<path class="st0" d="M43.18,45.31c-3.57,0-6.48-2.91-6.48-6.48s2.91-6.48,6.48-6.48c3.57,0,6.48,2.91,6.48,6.48
			S46.75,45.31,43.18,45.31z M43.18,33.81c-2.77,0-5.03,2.25-5.03,5.03c0,2.77,2.25,5.03,5.03,5.03c2.77,0,5.03-2.25,5.03-5.03
			C48.2,36.06,45.95,33.81,43.18,33.81z"/>
		<g>
			<path class="st0" d="M48.12,44.59h-4.97l2.46-1.36c1.6-0.89,2.59-2.57,2.59-4.4c0-1.14-0.37-2.21-1.08-3.11l-0.23-0.29l0.1-0.36
				c0.01-0.05,0.01-0.07,0.01-0.08V11.59c0-0.16-0.13-0.29-0.29-0.29c-2.62,0-4.75-2.13-4.75-4.75V6.5c0-0.16-0.13-0.29-0.29-0.29
				c-0.4,0-0.73-0.33-0.73-0.73c0-0.4,0.33-0.73,0.73-0.73c0.96,0,1.74,0.78,1.74,1.74v0.06c0,1.82,1.48,3.3,3.3,3.3
				c0.96,0,1.74,0.78,1.74,1.74V35c0,0.03,0,0.05,0,0.08c0.78,1.1,1.19,2.39,1.19,3.75c0,1.61-0.6,3.14-1.64,4.31h0.1
				c1.16,0,2.1-0.94,2.1-2.1V5.55c0-1.16-0.94-2.1-2.1-2.1H5.92c-1.16,0-2.1,0.94-2.1,2.1v14.97c0,0.4-0.33,0.73-0.73,0.73
				s-0.73-0.33-0.73-0.73V5.55C2.37,3.59,3.96,2,5.92,2h42.2c1.96,0,3.55,1.59,3.55,3.55v35.49C51.67,43,50.07,44.59,48.12,44.59z"
				/>
			<path class="st0" d="M43.2,44.59H5.92c-1.96,0-3.55-1.59-3.55-3.55V27.3c0-0.4,0.33-0.73,0.73-0.73s0.73,0.33,0.73,0.73v13.74
				c0,1.16,0.94,2.1,2.1,2.1h32.41c-0.35-0.39-0.65-0.83-0.9-1.3H12.35c-0.96,0-1.74-0.78-1.74-1.74v-0.06c0-1.82-1.48-3.3-3.3-3.3
				c-0.96,0-1.74-0.78-1.74-1.74V11.59c0-0.96,0.78-1.74,1.74-1.74c1.82,0,3.3-1.48,3.3-3.3V6.5c0-0.4,0.33-0.73,0.73-0.73
				c0.4,0,0.73,0.33,0.73,0.73v0.06c0,2.62-2.13,4.75-4.75,4.75c-0.16,0-0.29,0.13-0.29,0.29V35c0,0.16,0.13,0.29,0.29,0.29
				c2.62,0,4.75,2.13,4.75,4.75v0.06c0,0.16,0.13,0.29,0.29,0.29h26.02l0.19,0.44c0.44,1.01,1.21,1.87,2.18,2.41L43.2,44.59z"/>
			<path class="st0" d="M39,41.84H12.35c-0.96,0-1.74-0.78-1.74-1.74v-0.06c0-1.82-1.48-3.3-3.3-3.3c-0.96,0-1.74-0.78-1.74-1.74
				V11.59c0-0.96,0.78-1.74,1.74-1.74c1.82,0,3.3-1.48,3.3-3.3V6.5c0-0.96,0.78-1.74,1.74-1.74h17.02c0.4,0,0.73,0.33,0.73,0.73
				c0,0.4-0.33,0.73-0.73,0.73H12.35c-0.16,0-0.29,0.13-0.29,0.29v0.06c0,2.62-2.13,4.75-4.75,4.75c-0.16,0-0.29,0.13-0.29,0.29V35
				c0,0.16,0.13,0.29,0.29,0.29c2.62,0,4.75,2.13,4.75,4.75v0.06c0,0.16,0.13,0.29,0.29,0.29h24.53c-0.12-0.5-0.19-1.02-0.19-1.55
				c0-3.57,2.91-6.48,6.48-6.48c1.4,0,2.73,0.44,3.83,1.25V11.59c0-0.16-0.13-0.29-0.29-0.29c-2.62,0-4.75-2.13-4.75-4.75V6.5
				c0-0.16-0.13-0.29-0.29-0.29H32.6c-0.4,0-0.73-0.33-0.73-0.73c0-0.4,0.33-0.73,0.73-0.73h9.08c0.96,0,1.74,0.78,1.74,1.74v0.06
				c0,1.82,1.48,3.3,3.3,3.3c0.96,0,1.74,0.78,1.74,1.74V35c0,0.15-0.02,0.3-0.07,0.47l-0.38,1.38l-0.89-1.13
				c-0.96-1.22-2.4-1.92-3.95-1.92c-2.77,0-5.03,2.25-5.03,5.03c0,0.69,0.14,1.36,0.41,1.99L39,41.84z"/>
		</g>
	</g>
</g>
<g id="Capa_1">
</g>
</svg>
