<?xml version="1.0" encoding="utf-8"?>
<!-- Generator: Adobe Illustrator 25.2.1, SVG Export Plug-In . SVG Version: 6.00 Build 0)  -->
<svg version="1.1" xmlns="http://www.w3.org/2000/svg" xmlns:xlink="http://www.w3.org/1999/xlink" x="0px" y="0px"
	 viewBox="0 0 54 54" style="enable-background:new 0 0 54 54;" xml:space="preserve">
<style type="text/css">
	.st0{fill:#E21E37;}
</style>
<g id="Layer_1">
</g>
<g id="Capa_1">
	<g>
		<path class="st0" d="M32.3,27.1h13c0.5,0,0.9-0.4,0.9-0.9v-7.3c0-3.3-2.7-6.1-6.1-6.1h-2.7c-3.3,0-6.1,2.7-6.1,6.1
			c0,0.3,0.3,0.6,0.6,0.6c0.3,0,0.6-0.3,0.6-0.6c0-2.2,1.4-4,3.4-4.6l0.9,1.7c0.1,0.2,0.3,0.3,0.5,0.4c0.2,0.1,0.4,0,0.6-0.1
			l0.3,0.5l-1,5.8v0c0,0.2,0,0.4,0.2,0.6l1.1,1.2c0.1,0.2,0.3,0.2,0.5,0.2c0.2,0,0.4-0.1,0.5-0.2l1.1-1.2c0.2-0.2,0.2-0.4,0.2-0.6
			l-1-5.8l0.3-0.5c0.2,0.1,0.4,0.2,0.6,0.1c0.2-0.1,0.4-0.2,0.5-0.4l0.8-1.6c1.7,0.8,3,2.5,3,4.5v7.1H32.6v-5c0-0.3-0.3-0.6-0.6-0.6
			c-0.3,0-0.6,0.3-0.6,0.6v5.3C31.4,26.7,31.8,27.1,32.3,27.1z M39.6,13.9L39,14.7l-0.6-0.7H39.6z M37.6,15l-0.3-0.5l0.4,0.4
			L37.6,15z M39,23.2l-0.6-0.7l0.6-3.8l0.6,3.8L39,23.2z M40.5,15l-0.1-0.1l0.4-0.4L40.5,15z"/>
		<path class="st0" d="M37.7,11.7c0,0,0.1,0,0.1,0c0.3,0,0.5-0.2,0.6-0.5c0.1-0.3-0.1-0.6-0.4-0.7c-2-0.4-3.3-2.4-2.8-4.4
			c0.2-1,0.8-1.8,1.6-2.3c0.8-0.5,1.8-0.7,2.8-0.5c1,0.2,1.8,0.8,2.3,1.6c0.5,0.8,0.7,1.8,0.5,2.8c-0.3,1.4-1.3,2.4-2.7,2.8
			c-0.3,0.1-0.5,0.4-0.4,0.7c0.1,0.3,0.4,0.5,0.7,0.4c1.8-0.5,3.1-1.9,3.5-3.7c0.3-1.3,0.1-2.6-0.6-3.7c-0.7-1.1-1.8-1.9-3.1-2.1
			c-1.3-0.3-2.6-0.1-3.7,0.6C35,3.5,34.3,4.6,34,5.8C33.4,8.5,35,11.1,37.7,11.7z"/>
		<path class="st0" d="M14.6,37.7H12c-3.3,0-6.1,2.7-6.1,6.1c0,0.3,0.3,0.6,0.6,0.6s0.6-0.3,0.6-0.6c0-2.2,1.4-4,3.4-4.6l0.9,1.7
			c0.1,0.2,0.3,0.3,0.5,0.4c0.2,0.1,0.4,0,0.6-0.1l0.3,0.5l-1,5.8v0c0,0.2,0,0.4,0.2,0.6l1.1,1.2c0.1,0.2,0.3,0.2,0.5,0.2
			c0.2,0,0.4-0.1,0.5-0.2l1.1-1.2c0.1-0.2,0.2-0.4,0.2-0.6l-1-5.8l0.3-0.5c0.2,0.1,0.4,0.2,0.6,0.1c0.2,0,0.4-0.2,0.5-0.4l0.8-1.6
			c1.7,0.8,3,2.5,3,4.5v7.1H7.1v-5c0-0.3-0.3-0.6-0.6-0.6s-0.6,0.3-0.6,0.6v5.3c0,0.5,0.4,0.9,0.9,0.9h13c0.5,0,0.9-0.4,0.9-0.9
			v-7.3C20.7,40.4,18,37.7,14.6,37.7z M14.1,38.9l-0.6,0.7L13,38.9H14.1z M12.1,39.9l-0.3-0.5l0.4,0.4L12.1,39.9z M13.5,48.1
			l-0.6-0.7l0.6-3.8l0.6,3.8L13.5,48.1z M15,39.9l-0.1-0.1l0.4-0.4L15,39.9z"/>
		<path class="st0" d="M14.2,35.4c-0.3,0.1-0.5,0.4-0.4,0.7c0.1,0.3,0.4,0.5,0.7,0.4c1.8-0.5,3.1-1.9,3.5-3.7
			c0.3-1.3,0.1-2.6-0.6-3.7c-0.7-1.1-1.8-1.9-3.1-2.1c-2.6-0.6-5.2,1.1-5.8,3.7c-0.3,1.3-0.1,2.6,0.6,3.7c0.7,1.1,1.8,1.9,3.1,2.1
			c0,0,0.1,0,0.1,0c0.3,0,0.5-0.2,0.6-0.5c0.1-0.3-0.1-0.6-0.4-0.7c-1-0.2-1.8-0.8-2.3-1.6C9.6,33,9.4,32,9.6,31
			c0.4-2,2.4-3.3,4.4-2.8c1,0.2,1.8,0.8,2.3,1.6c0.5,0.8,0.7,1.8,0.5,2.8C16.6,34,15.5,35.1,14.2,35.4z"/>
		<path class="st0" d="M48,34.7l-1.8-3.2c-0.1-0.2-0.4-0.4-0.6-0.5c-0.3-0.1-0.5,0-0.8,0.1l-3,2c-0.3,0.2-0.5,0.6-0.4,1
			c0.1,0.4,0.4,0.7,0.7,0.8l0.7,0.2c-0.3,0.6-0.5,1.2-0.9,1.7c-0.2,0.3-0.1,0.6,0.2,0.8c0.3,0.2,0.6,0.1,0.8-0.2
			c0.4-0.8,0.8-1.7,1.2-2.5l0.2-0.6L42.8,34l2.5-1.7l1.5,2.6l-1.7-0.4L44.9,35c-2.5,6.9-8.6,11.9-15.8,13l-0.5,0.1l0.1,1.8L26.4,48
			l2.1-2.1l0.1,1.6l0.7-0.1c4.6-0.8,8.8-3.2,11.8-6.8c0.2-0.2,0.2-0.6-0.1-0.8c-0.2-0.2-0.6-0.2-0.8,0.1c-2.7,3.2-6.3,5.4-10.4,6.3
			l0-0.7c0-0.4-0.3-0.7-0.6-0.9c-0.4-0.1-0.8,0-1,0.2l-2.6,2.6c-0.2,0.2-0.3,0.5-0.3,0.7c0,0.3,0.1,0.5,0.3,0.7l2.8,2.4
			c0.2,0.2,0.4,0.2,0.6,0.2c0.1,0,0.3,0,0.4-0.1c0.3-0.2,0.6-0.5,0.5-0.9l-0.1-1.2c7.2-1.3,13.3-6.3,16-13.2l1.1,0.3
			c0.4,0.1,0.8-0.1,1-0.4C48.2,35.5,48.2,35,48,34.7z"/>
		<path class="st0" d="M25.6,12.3c0.4,0.2,0.8,0.1,1.1-0.2l2.7-2.5c0.2-0.2,0.3-0.4,0.3-0.7c0-0.3-0.1-0.5-0.3-0.7l-2.7-2.5
			c-0.3-0.3-0.7-0.3-1.1-0.2c-0.4,0.2-0.6,0.5-0.6,0.9l0,1.2c-5.3,0.7-10.1,3.4-13.6,7.5c-0.2,0.2-0.2,0.6,0.1,0.8
			c0.2,0.2,0.6,0.2,0.8-0.1c3.4-4.1,8.1-6.6,13.4-7.2l0.5-0.1l0-1.7l2.2,2.1l-2.2,2l0-1.6l-0.7,0.1C18.7,10.2,12.8,14.6,10,21
			l-0.3,0.6l1.5,0.4l-2.6,1.5l-1.3-2.7l1.7,0.5l0.2-0.5c0.3-0.7,0.7-1.4,1.1-2.1c0.2-0.3,0.1-0.6-0.2-0.8c-0.3-0.2-0.6-0.1-0.8,0.2
			c-0.3,0.6-0.6,1.2-0.9,1.8l-1.2-0.3c-0.4-0.1-0.8,0-1,0.3C6,20.2,5.9,20.6,6.1,21l1.6,3.3c0.1,0.2,0.3,0.4,0.6,0.5
			c0.1,0,0.2,0,0.3,0c0.2,0,0.3,0,0.5-0.1l3.1-1.9c0.3-0.2,0.5-0.6,0.5-1c0-0.4-0.3-0.7-0.7-0.8l-0.6-0.2c2.6-5.4,7.7-9.2,13.7-10.2
			l0,0.7C25,11.8,25.2,12.1,25.6,12.3z"/>
	</g>
</g>
</svg>
