<?xml version="1.0" encoding="utf-8"?>
<!-- Generator: Adobe Illustrator 24.0.2, SVG Export Plug-In . SVG Version: 6.00 Build 0)  -->
<svg version="1.1" id="Layer_1" xmlns="http://www.w3.org/2000/svg" xmlns:xlink="http://www.w3.org/1999/xlink" x="0px" y="0px"
	 viewBox="0 0 14 13.6" style="enable-background:new 0 0 14 13.6;" xml:space="preserve">
<style type="text/css">
	.st0{fill:#FFFFFF;}
</style>
<path class="st0" d="M7,0.3c-2.4,0-4.4,2-4.4,4.4c0,2.1,3.4,7.3,4.2,8.5c0.1,0.1,0.3,0.1,0.4,0c0.8-1.3,4.2-6.4,4.2-8.5
	C11.4,2.2,9.4,0.3,7,0.3z M7,6.1c-1,0-1.9-0.8-1.9-1.9c0-1,0.8-1.9,1.9-1.9c1,0,1.9,0.8,1.9,1.9C8.8,5.3,8,6.1,7,6.1z"/>
</svg>
