<?xml version="1.0" encoding="utf-8"?>
<!-- Generator: Adobe Illustrator 25.2.1, SVG Export Plug-In . SVG Version: 6.00 Build 0)  -->
<svg version="1.1" xmlns="http://www.w3.org/2000/svg" xmlns:xlink="http://www.w3.org/1999/xlink" x="0px" y="0px"
	 viewBox="0 0 54.04 54" style="enable-background:new 0 0 54.04 54;" xml:space="preserve">
<style type="text/css">
	.st0{fill:#E21F37;}
	.st1{fill:#EA2B2C;}
	.st2{fill:#EA2C2D;}
	.st3{fill:#060605;}
	.st4{fill:#E73632;}
	.st5{fill:#FFFFFF;}
	.st6{fill:#FFFFFF;stroke:#E21F37;stroke-width:10;stroke-miterlimit:10;}
	.st7{fill:none;stroke:#E21F37;stroke-width:10;stroke-miterlimit:10;}
	.st8{fill:none;stroke:#E21F37;stroke-width:6;stroke-miterlimit:10;}
	.st9{fill:none;stroke:#E21F37;stroke-width:6;stroke-linecap:round;stroke-miterlimit:10;}
	.st10{fill:#010101;}
	.st11{fill:#E31F36;}
	.st12{fill:none;stroke:#010101;stroke-miterlimit:10;}
	.st13{fill:#FFFFFF;stroke:#E21F37;stroke-width:6;stroke-miterlimit:10;}
	.st14{fill:#FFFFFF;stroke:#E21F37;stroke-width:6;stroke-linecap:round;stroke-miterlimit:10;}
	.st15{fill:#FFFFFF;stroke:#E21F37;stroke-width:4;stroke-miterlimit:10;}
</style>
<g id="Layer_1">
	<g>
		<path class="st0" d="M44.73,32.83c-0.33,0-0.63-0.22-0.71-0.56l-0.31-1.28c-0.18-0.72-0.08-1.48,0.26-2.13l1.49-2.81
			c0.19-0.36,0.2-0.81,0.03-1.18l-1.7-3.62c-0.29-0.61-0.85-1.04-1.52-1.14l-1.87-0.3c-1.33-0.22-2.43-1.19-2.8-2.49l-1.18-4.16
			c-0.27-0.97-0.12-2.01,0.43-2.85l2.59-4c0.22-0.34,0.67-0.43,1.01-0.22c0.34,0.22,0.43,0.67,0.22,1.01l-2.59,4
			c-0.32,0.49-0.41,1.1-0.25,1.66l1.18,4.16c0.21,0.76,0.86,1.33,1.63,1.45l1.87,0.3c1.14,0.18,2.11,0.92,2.6,1.97l1.7,3.62
			c0.37,0.79,0.35,1.71-0.06,2.48l-1.49,2.81c-0.18,0.34-0.23,0.73-0.14,1.1l0.31,1.28c0.1,0.39-0.14,0.79-0.53,0.88
			C44.84,32.82,44.79,32.83,44.73,32.83z"/>
		<path class="st0" d="M28.22,52c-0.99,0-1.93-0.4-2.61-1.11l-5.43-5.67c-0.55-0.57-0.81-1.36-0.72-2.15l0.5-4.28
			c0.08-0.67-0.31-1.29-0.95-1.51l-8.76-3.05c-0.99-0.27-1.78-1.01-2.12-1.98l-2.04-6c-0.13-0.38,0.07-0.79,0.46-0.92
			c0.38-0.13,0.79,0.07,0.92,0.46l2.04,6c0.18,0.52,0.6,0.91,1.13,1.05l0.06,0.02l8.79,3.06c1.29,0.45,2.08,1.71,1.92,3.06
			l-0.5,4.28c-0.04,0.36,0.08,0.71,0.32,0.97l5.43,5.67c0.43,0.45,1.05,0.69,1.68,0.66c6.07-0.34,11.7-2.97,15.87-7.42
			c4.19-4.47,6.45-10.31,6.36-16.44c-0.09-6.15-2.55-11.94-6.94-16.32S33.44,3.53,27.3,3.46c-5.28-0.07-10.28,1.58-14.48,4.75
			c-0.32,0.24-0.78,0.18-1.02-0.14c-0.24-0.32-0.18-0.78,0.14-1.02C16.4,3.68,21.71,1.93,27.31,2C33.84,2.08,40,4.68,44.66,9.33
			c4.66,4.65,7.28,10.8,7.37,17.33c0.09,6.51-2.31,12.71-6.75,17.46c-4.42,4.72-10.41,7.52-16.85,7.88C28.36,52,28.29,52,28.22,52z"
			/>
		<path class="st0" d="M20.7,51.2c-0.06,0-0.13-0.01-0.19-0.03C9.61,48.25,2,38.32,2,27.02c0-4.89,1.41-9.62,4.08-13.69
			c0.79-1.2,2.23-1.81,3.66-1.54l6.52,1.24c0.83,0.2,1.55,0.7,2.03,1.39l1.85,2.66c0.33,0.48,0.88,0.77,1.47,0.77
			c0.6,0,1.16-0.3,1.49-0.8l0.97-1.47c0.69-1.05,1.92-1.49,3.13-1.13c1.21,0.36,1.98,1.41,1.98,2.67v8.67c0,0.98-0.44,1.89-1.22,2.5
			l-2.64,2.07c-0.38,0.3-0.6,0.75-0.6,1.23c0,0.87,0.7,1.57,1.57,1.57h5.88c1.2,0,2.32,0.47,3.17,1.31l3.32,3.32
			c1,1,1.47,2.43,1.27,3.82l-0.98,6.64c-0.06,0.4-0.43,0.67-0.83,0.61c-0.4-0.06-0.67-0.43-0.61-0.83l0.98-6.64
			c0.14-0.94-0.18-1.91-0.85-2.58l-3.32-3.32c-0.57-0.57-1.33-0.89-2.14-0.89h-5.88c-1.67,0-3.03-1.36-3.03-3.03
			c0-0.94,0.42-1.8,1.16-2.38l2.64-2.07c0.42-0.33,0.66-0.82,0.66-1.35v-8.67c0-0.73-0.49-1.14-0.95-1.27
			c-0.46-0.14-1.09-0.07-1.49,0.54l-0.97,1.47c-0.6,0.91-1.62,1.46-2.71,1.46c-1.06,0-2.06-0.52-2.67-1.4l-1.85-2.66
			c-0.28-0.4-0.69-0.69-1.16-0.8l-6.47-1.23c-0.85-0.16-1.71,0.19-2.17,0.9c-2.51,3.83-3.84,8.29-3.84,12.89
			c0,10.64,7.17,20,17.43,22.75c0.39,0.1,0.62,0.5,0.51,0.89C21.32,50.99,21.02,51.2,20.7,51.2z"/>
	</g>
</g>
<g id="Capa_1">
</g>
</svg>
