<?xml version="1.0" encoding="utf-8"?>
<!-- Generator: Adobe Illustrator 24.1.0, SVG Export Plug-In . SVG Version: 6.00 Build 0)  -->
<svg version="1.1" id="Layer_1" xmlns="http://www.w3.org/2000/svg" xmlns:xlink="http://www.w3.org/1999/xlink" x="0px" y="0px"
	 viewBox="0 0 16 12" style="enable-background:new 0 0 16 12;" xml:space="preserve">
<style type="text/css">
	.st0{opacity:0.72;}
	.st1{opacity:0.36;fill:#E21F36;enable-background:new    ;}
	.st2{fill:#E21F36;}
	.st3{opacity:0.51;}
	.st4{clip-path:url(#SVGID_2_);}
	.st5{opacity:0.2;}
	.st6{fill:#E21F36;stroke:#FFFFFF;stroke-width:2.000000e-02;stroke-linejoin:round;stroke-miterlimit:10;}
	.st7{opacity:0.9;}
	.st8{opacity:0.3;}
	.st9{opacity:0.8;}
	.st10{opacity:0.4;}
	.st11{opacity:0.7;}
	.st12{opacity:0.5;}
	.st13{opacity:0.6;}
</style>
<g>
	<g class="st0">
		<path class="st1" d="M8,11c0,0,4.4-1.5,4.3-7.6c-1.2,0-3.2-1.6-4-2.3C8.1,1,7.9,1,7.7,1.2c-0.8,0.6-2.8,2.2-4,2.3
			C3.6,9.5,8,11,8,11z M6.7,5.1c0-0.8,0.6-1.3,1.3-1.3s1.3,0.6,1.3,1.3c0,0.5-0.3,1-0.8,1.2v2H7.4v-2C7,6.1,6.7,5.6,6.7,5.1z"/>
		<path class="st1" d="M8,11c0,0,4.4-1.5,4.3-7.6c-1.2,0-3.2-1.6-4-2.3C8.1,1,7.9,1,7.7,1.2c-0.8,0.6-2.8,2.2-4,2.3
			C3.6,9.5,8,11,8,11z M6.7,5.1c0-0.8,0.6-1.3,1.3-1.3s1.3,0.6,1.3,1.3c0,0.5-0.3,1-0.8,1.2v2H7.4v-2C7,6.1,6.7,5.6,6.7,5.1z"/>
		<path class="st1" d="M8,11c0,0,4.4-1.5,4.3-7.6c-1.2,0-3.2-1.6-4-2.3C8.1,1,7.9,1,7.7,1.2c-0.8,0.6-2.8,2.2-4,2.3
			C3.6,9.5,8,11,8,11z M6.7,5.1c0-0.8,0.6-1.3,1.3-1.3s1.3,0.6,1.3,1.3c0,0.5-0.3,1-0.8,1.2v2H7.4v-2C7,6.1,6.7,5.6,6.7,5.1z"/>
		<path class="st2" d="M8,11c0,0-1.1-0.4-2.2-1.5c-1-1-2.2-2.9-2.1-6.1v0h0c1.2,0,3.2-1.6,4-2.3c0.2-0.2,0.5-0.2,0.7,0
			c0.8,0.7,2.8,2.2,4,2.3h0v0c0.1,3.2-1.1,5.1-2.1,6.1C9.1,10.6,8,11,8,11L8,11L8,11z M8.3,1.2C8.1,1,7.9,1,7.7,1.2
			c-0.8,0.7-2.8,2.2-4,2.3c0,3.1,1.1,5,2.1,6c1,1.1,2.1,1.5,2.2,1.5c0.1,0,1.1-0.4,2.2-1.5c1-1,2.2-2.9,2.1-6
			C11.1,3.4,9.1,1.8,8.3,1.2z M7.4,6.3C6.9,6.1,6.6,5.6,6.6,5.1c0-0.8,0.6-1.4,1.4-1.4s1.4,0.6,1.4,1.4c0,0.5-0.3,1-0.8,1.2v2H7.4
			V6.3z M8.5,6.3L8.5,6.3C9,6,9.3,5.6,9.3,5.1c0-0.7-0.6-1.3-1.3-1.3S6.7,4.3,6.7,5.1c0,0.5,0.3,1,0.8,1.2l0,0v2h1.1V6.3z"/>
		<path class="st2" d="M8,11c0,0-1.1-0.4-2.2-1.5c-1-1-2.2-2.9-2.1-6.1v0h0c1.2,0,3.2-1.6,4-2.3c0.2-0.2,0.5-0.2,0.7,0
			c0.8,0.7,2.8,2.2,4,2.3h0v0c0.1,3.2-1.1,5.1-2.1,6.1C9.1,10.6,8,11,8,11L8,11L8,11z M8.3,1.2C8.1,1,7.9,1,7.7,1.2
			c-0.8,0.7-2.8,2.2-4,2.3c0,3.1,1.1,5,2.1,6c1,1.1,2.1,1.5,2.2,1.5c0.1,0,1.1-0.4,2.2-1.5c1-1,2.2-2.9,2.1-6
			C11.1,3.4,9.1,1.8,8.3,1.2z M7.4,6.3C6.9,6.1,6.6,5.6,6.6,5.1c0-0.8,0.6-1.4,1.4-1.4s1.4,0.6,1.4,1.4c0,0.5-0.3,1-0.8,1.2v2H7.4
			V6.3z M8.5,6.3L8.5,6.3C9,6,9.3,5.6,9.3,5.1c0-0.7-0.6-1.3-1.3-1.3S6.7,4.3,6.7,5.1c0,0.5,0.3,1,0.8,1.2l0,0v2h1.1V6.3z"/>
		<path class="st2" d="M8,11c0,0-1.1-0.4-2.2-1.5c-1-1-2.2-2.9-2.1-6.1v0h0c1.2,0,3.2-1.6,4-2.3c0.2-0.2,0.5-0.2,0.7,0
			c0.8,0.7,2.8,2.2,4,2.3h0v0c0.1,3.2-1.1,5.1-2.1,6.1C9.1,10.6,8,11,8,11L8,11L8,11z M8.3,1.2C8.1,1,7.9,1,7.7,1.2
			c-0.8,0.7-2.8,2.2-4,2.3c0,3.1,1.1,5,2.1,6c1,1.1,2.1,1.5,2.2,1.5c0.1,0,1.1-0.4,2.2-1.5c1-1,2.2-2.9,2.1-6
			C11.1,3.4,9.1,1.8,8.3,1.2z M7.4,6.3C6.9,6.1,6.6,5.6,6.6,5.1c0-0.8,0.6-1.4,1.4-1.4s1.4,0.6,1.4,1.4c0,0.5-0.3,1-0.8,1.2v2H7.4
			V6.3z M8.5,6.3L8.5,6.3C9,6,9.3,5.6,9.3,5.1c0-0.7-0.6-1.3-1.3-1.3S6.7,4.3,6.7,5.1c0,0.5,0.3,1,0.8,1.2l0,0v2h1.1V6.3z"/>
		<path class="st2" d="M8,11c0,0-1.1-0.4-2.2-1.5c-1-1-2.2-2.9-2.1-6.1v0h0c1.2,0,3.2-1.6,4-2.3c0.2-0.2,0.5-0.2,0.7,0
			c0.8,0.7,2.8,2.2,4,2.3h0v0c0.1,3.2-1.1,5.1-2.1,6.1C9.1,10.6,8,11,8,11L8,11L8,11z M8.3,1.2C8.1,1,7.9,1,7.7,1.2
			c-0.8,0.7-2.8,2.2-4,2.3c0,3.1,1.1,5,2.1,6c1,1.1,2.1,1.5,2.2,1.5c0.1,0,1.1-0.4,2.2-1.5c1-1,2.2-2.9,2.1-6
			C11.1,3.4,9.1,1.8,8.3,1.2z M7.4,6.3C6.9,6.1,6.6,5.6,6.6,5.1c0-0.8,0.6-1.4,1.4-1.4s1.4,0.6,1.4,1.4c0,0.5-0.3,1-0.8,1.2v2H7.4
			V6.3z M8.5,6.3L8.5,6.3C9,6,9.3,5.6,9.3,5.1c0-0.7-0.6-1.3-1.3-1.3S6.7,4.3,6.7,5.1c0,0.5,0.3,1,0.8,1.2l0,0v2h1.1V6.3z"/>
	</g>
	<g class="st3">
		<g>
			<defs>
				<path id="SVGID_1_" d="M8,11c0,0,4.4-1.5,4.3-7.6c-1.2,0-3.2-1.6-4-2.3C8.1,1,7.9,1,7.7,1.2c-0.8,0.6-2.8,2.2-4,2.3
					C3.6,9.5,8,11,8,11z M6.7,5.1c0-0.8,0.6-1.3,1.3-1.3s1.3,0.6,1.3,1.3c0,0.5-0.3,1-0.8,1.2v2H7.4v-2C7,6.1,6.7,5.6,6.7,5.1z"/>
			</defs>
			<use xlink:href="#SVGID_1_"  style="overflow:visible;fill:#E21F36;"/>
			<clipPath id="SVGID_2_">
				<use xlink:href="#SVGID_1_"  style="overflow:visible;"/>
			</clipPath>
			<g class="st4">
				<g>
					<g class="st5">
						<polygon class="st6" points="5.2,-2.4 5.3,-1.8 5.9,-2 						"/>
						<polygon class="st6" points="6.9,-3 7.5,-3.3 6.7,-3.6 						"/>
						<polygon class="st6" points="8.8,-3.4 9,-2.3 8.4,-2.5 						"/>
						<polygon class="st6" points="5.5,0.7 5.5,1.4 5.5,1.5 5.5,1.5 5.1,1.3 						"/>
						<polygon class="st6" points="7.8,3.9 8.1,3.9 8.3,3.9 8,3.4 						"/>
						<polygon class="st6" points="7.5,3.3 8,3.4 7.9,2.6 						"/>
						<polygon class="st6" points="7.3,2.4 6.7,2.4 7.3,0.2 						"/>
						<polygon class="st6" points="6.1,2.8 5.5,3.5 6.3,3.6 						"/>
						<polygon class="st6" points="4.3,2 4.2,2 4.1,2 4,2.1 3.9,2.1 3.8,2.2 4.1,2.6 						"/>
						<polygon class="st6" points="4.3,3.4 5.1,2.8 4.6,2.7 						"/>
						<polygon class="st6" points="4.8,5.8 4.7,4.9 5.7,4.6 						"/>
						<polygon class="st6" points="6,8.1 7.5,8.1 7.5,8.1 7.5,8.1 7.5,8 7.5,8 7.5,7.3 						"/>
						<polygon class="st6" points="8.5,0.2 9.5,0.2 8.7,2.4 						"/>
						<polygon class="st6" points="9.6,4.2 10.2,3.1 8.8,3.4 						"/>
						<polygon class="st6" points="10.1,5.7 11.4,5.8 10.8,4.6 						"/>
						<polygon class="st6" points="9.1,5.4 9.1,5.6 9,5.8 9.4,5.5 						"/>
						<polygon class="st6" points="9.1,6.4 9.6,7 9.7,6.2 						"/>
						<polygon class="st6" points="9.3,7.6 9.3,8.1 8.7,8.1 						"/>
						<polygon class="st6" points="10.2,6.9 10.4,7.7 9.6,7 						"/>
					</g>
					<g class="st7">
						<polygon class="st6" points="5.3,-1.8 5.7,-1.3 5.1,-1.2 						"/>
						<polygon class="st6" points="5.9,-2 6.3,-2.5 5.7,-2.9 						"/>
						<polygon class="st6" points="7.5,-2.8 7.8,-2.5 7.4,-2.4 						"/>
						<polygon class="st6" points="7.3,-3.8 8,-3.9 7.5,-3.3 						"/>
						<polygon class="st6" points="8.1,-3 8.8,-3.4 8.4,-2.5 						"/>
						<polygon class="st6" points="9.4,-2.9 10.2,-3.1 9.8,-3.4 						"/>
						<polygon class="st6" points="10,-1.5 10.4,-0.7 10.6,-1.8 						"/>
						<polygon class="st6" points="11.1,-0.7 11.3,0.2 10.6,-0.1 						"/>
						<path class="st6" d="M10.6,0.8v0.6c0,0.1,0.1,0.2,0.2,0.2h0.3L10.6,0.8z"/>
						<polygon class="st6" points="5,-0.5 5.2,0.2 5.6,-0.2 						"/>
						<polygon class="st6" points="7.5,6.1 6.9,6.4 7.2,5.7 7.3,5.9 7.4,6 7.4,6.1 7.4,6.1 						"/>
						<polygon class="st6" points="7.1,4.6 6.8,3.9 6.2,4.8 						"/>
						<polygon class="st6" points="8,3.4 8.3,3.9 8.8,3.4 						"/>
						<polygon class="st6" points="8.7,2.4 8.5,0.2 7.9,2.6 						"/>
						<polygon class="st6" points="6.7,2.4 6.6,0.2 7.3,0.2 						"/>
						<polygon class="st6" points="6.1,2.8 5.1,2.8 5.5,2 						"/>
						<polygon class="st6" points="5,2 4.3,2 4.6,2.7 						"/>
						<polygon class="st6" points="4.3,3.4 4.9,4.1 5.1,2.8 						"/>
						<polygon class="st6" points="4.8,5.8 6.2,4.8 5.7,4.6 						"/>
						<polygon class="st6" points="4.6,7.3 3.7,6.7 4.8,5.8 						"/>
						<polygon class="st6" points="6,8.1 6.6,7.1 5.6,6.1 						"/>
						<polygon class="st6" points="8.7,8.6 9.3,8.1 8.7,8.1 						"/>
						<polygon class="st6" points="11.8,2.6 11.3,3.7 10.2,3.1 						"/>
						<polygon class="st6" points="11.7,4.4 11.9,3.7 12.5,3.9 						"/>
						<polygon class="st6" points="10.1,5.7 10.2,6.9 11.4,5.8 						"/>
						<polygon class="st6" points="10.1,9 11.3,8.7 10.4,7.7 						"/>
					</g>
					<g class="st8">
						<polygon class="st6" points="6.3,-2.5 6.5,-1.8 7.1,-2.2 						"/>
						<polygon class="st6" points="10,-2.2 10.8,-2.6 10.2,-3.1 9.9,-2.5 						"/>
						<polygon class="st6" points="5,-0.5 5.7,-0.7 5.6,-0.2 						"/>
						<polygon class="st6" points="7.5,4.1 7.8,3.9 7.5,3.3 						"/>
						<polygon class="st6" points="7.9,2.6 8.7,2.4 8,3.4 						"/>
						<polygon class="st6" points="6.7,2.4 6.1,2.8 6.8,2.9 						"/>
						<polygon class="st6" points="4.3,3.4 4.1,2.6 4.6,2.7 						"/>
						<polygon class="st6" points="4.6,7.3 6,8.1 4.8,9.1 						"/>
						<polygon class="st6" points="8.7,8.6 9.3,8.1 9.3,11.7 						"/>
						<polygon class="st6" points="10.2,3.1 10.6,2 9.5,0.2 						"/>
						<polygon class="st6" points="11.5,2 11.8,2.6 11.9,2 						"/>
						<polygon class="st6" points="11.3,3.7 11.7,4.4 11.9,3.7 						"/>
						<polygon class="st6" points="9,5.8 9.7,6.2 9.4,5.5 						"/>
						<polygon class="st6" points="8.7,6.9 9.6,7 9.1,6.4 						"/>
						<polygon class="st6" points="11.3,8.7 11.3,7.1 10.4,7.7 						"/>
					</g>
					<g class="st9">
						<polygon class="st6" points="5.2,-2.4 5.9,-2 5.7,-2.9 						"/>
						<polygon class="st6" points="5.3,-1.8 5.1,-1.2 4.9,-1.9 						"/>
						<polygon class="st6" points="5.7,-1.3 6.1,-1.3 5.7,-0.7 						"/>
						<polygon class="st6" points="6.3,-2.5 6.9,-3 7.1,-2.2 						"/>
						<polygon class="st6" points="6.7,-3.6 7.3,-3.8 7.5,-3.3 						"/>
						<polygon class="st6" points="8.1,-3 8.4,-2.5 7.8,-2.5 						"/>
						<polygon class="st6" points="8.6,-3.8 9.3,-3.7 8.8,-3.4 						"/>
						<polygon class="st6" points="9.4,-2.9 9.5,-2 10,-2.2 9.9,-2.5 						"/>
						<polygon class="st6" points="10.6,-1.8 11.3,-1.8 10.8,-2.6 						"/>
						<polygon class="st6" points="10.4,-0.7 10.6,-0.1 11.1,-0.7 						"/>
						<polygon class="st6" points="11.3,0.2 11.9,0.1 11.7,-0.8 						"/>
						<polygon class="st6" points="11.5,1 11.1,1.6 10.6,0.8 						"/>
						<polygon class="st6" points="4.5,-0.9 5,-0.5 4.3,0 						"/>
						<polygon class="st6" points="5.2,0.2 5.5,0.7 5.6,-0.2 						"/>
						<polygon class="st6" points="4.3,1.4 4.3,1.5 4.4,1.5 4.4,1.6 4.5,1.6 4.7,1.6 5.1,1.3 						"/>
						<polygon class="st6" points="7.2,5.7 7.1,5.5 7,5.2 6.8,5.6 						"/>
						<polygon class="st6" points="7.1,4.6 7.3,4.3 7.5,4.1 6.8,3.9 						"/>
						<polygon class="st6" points="7.5,3.3 7.9,2.6 7.3,2.4 6.8,2.9 						"/>
						<polygon class="st6" points="8.8,3.4 8.8,4.2 8.6,4 8.3,3.9 						"/>
						<polygon class="st6" points="6.1,2.8 5.1,2.8 5.5,3.5 						"/>
						<polygon class="st6" points="3.7,2.9 3.7,3.6 4.3,3.4 						"/>
						<polygon class="st6" points="4.7,4.9 4.8,5.8 3.7,5.4 						"/>
						<polygon class="st6" points="6.3,3.6 5.7,4.6 6.2,4.8 						"/>
						<polygon class="st6" points="4.6,7.3 6,8.1 5.6,6.1 						"/>
						<polygon class="st6" points="3.9,9.7 4,9.7 4.1,9.8 4.1,9.8 4.2,9.8 4.4,9.8 4.5,9.8 5.3,9.8 4.8,9.1 						"/>
						<polygon class="st6" points="7.5,8.1 8.1,11.7 6.5,11.7 						"/>
						<polygon class="st6" points="7.5,6.1 7.5,6.1 7.5,6.1 7.5,6.1 7.5,7.3 6.9,6.4 						"/>
						<polygon class="st6" points="10.2,3.1 11.5,2 10.6,2 						"/>
						<path class="st6" d="M11.9,2H12c0.3,0,0.4,0.2,0.4,0.5v0.4L11.9,2z"/>
						<polygon class="st6" points="11.7,4.4 12.5,5.3 12.5,3.9 						"/>
						<polygon class="st6" points="10.8,4.6 9.6,4.2 10.1,5.7 						"/>
						<polygon class="st6" points="10.2,6.9 11.3,7.1 10.4,7.7 						"/>
						<polygon class="st6" points="9.3,8.1 9.3,11.7 10.1,9 						"/>
						<path class="st6" d="M11.7,9.8H12c0.3,0,0.5-0.2,0.5-0.6V9L11.7,9.8z"/>
					</g>
					<g class="st10">
						<polygon class="st6" points="5.9,-2 6.5,-1.8 6.1,-1.3 						"/>
						<polygon class="st6" points="7.5,-3.3 6.9,-3 7.5,-2.8 						"/>
						<polygon class="st6" points="8.8,-3.4 9,-2.3 9.4,-2.9 						"/>
						<polygon class="st6" points="10.6,-1.8 11.1,-0.7 11.3,-1.8 						"/>
						<polygon class="st6" points="11.3,0.2 11.9,0.1 11.5,1 						"/>
						<path class="st6" d="M11.5,1.6h0.2c0.1,0,0.1-0.1,0.1-0.2V1.1L11.5,1.6z"/>
						<polygon class="st6" points="5.1,-1.2 4.5,-0.9 4.9,-1.9 						"/>
						<polygon class="st6" points="5.2,0.2 5.1,1.3 4.3,0.8 						"/>
						<polygon class="st6" points="6.8,5.6 6.9,6.4 7.2,5.7 						"/>
						<polygon class="st6" points="8.8,3.4 8.7,2.4 8,3.4 						"/>
						<polygon class="st6" points="6.7,2.4 6.8,2.9 7.3,2.4 						"/>
						<polygon class="st6" points="6.1,0.2 5.5,2 6.1,2.8 						"/>
						<polygon class="st6" points="4.9,4.1 5.7,4.6 5.5,3.5 						"/>
						<polygon class="st6" points="4.8,5.8 4.6,7.3 5.6,6.1 						"/>
						<polygon class="st6" points="10.2,3.1 10.8,4.6 9.6,4.2 						"/>
						<polygon class="st6" points="9.1,6.4 9.7,6.2 9,5.8 						"/>
						<polygon class="st6" points="8.7,6.9 9.6,7 9.3,7.6 						"/>
						<polygon class="st6" points="10.2,6.9 11.3,7.1 11.4,5.8 						"/>
						<polygon class="st6" points="11.7,9.8 11.3,8.7 12.5,9 						"/>
					</g>
					<g class="st11">
						<polygon class="st6" points="5.7,-1.3 5.9,-2 6.1,-1.3 						"/>
						<polygon class="st6" points="6.3,-3 6.3,-2.5 6.9,-3 						"/>
						<polygon class="st6" points="8.1,-3 8.8,-3.4 8,-3.9 						"/>
						<polygon class="st6" points="9.4,-2.9 9.9,-2.5 10.2,-3.1 						"/>
						<polygon class="st6" points="10.6,-1.8 10.4,-0.7 11.1,-0.7 						"/>
						<polygon class="st6" points="11.3,0.2 10.6,0.8 10.6,-0.1 						"/>
						<polygon class="st6" points="11.5,1 11.9,1.1 11.5,1.6 						"/>
						<polygon class="st6" points="5.1,-1.2 5,-0.5 4.5,-0.9 						"/>
						<polygon class="st6" points="5.2,0.2 5.5,0.7 5.1,1.3 						"/>
						<polygon class="st6" points="6.8,3.9 7.5,4.1 7.5,3.3 						"/>
						<polygon class="st6" points="7.9,2.6 7.3,2.4 7.9,0.2 						"/>
						<polygon class="st6" points="6.1,0.2 6.1,2.8 6.7,2.4 						"/>
						<polygon class="st6" points="5.5,2 5,2 5.1,2.8 						"/>
						<polygon class="st6" points="4.3,2 4.6,2.7 4.1,2.6 						"/>
						<polygon class="st6" points="4.3,3.4 3.7,3.6 3.7,4.2 4.9,4.1 						"/>
						<polygon class="st6" points="5.5,3.5 5.7,4.6 6.3,3.6 						"/>
						<polygon class="st6" points="4.8,5.8 5.6,6.1 6.2,4.8 						"/>
						<polygon class="st6" points="4.6,7.3 3.7,8.3 3.7,6.7 						"/>
						<polygon class="st6" points="4.8,9.1 6,8.1 5.3,9.8 						"/>
						<polygon class="st6" points="8.2,8.1 8.1,11.7 7.5,8.1 7.5,8.1 7.5,8.1 7.6,8.1 7.6,8.1 						"/>
						<polygon class="st6" points="6.9,6.4 7.5,7.3 6.6,7.1 						"/>
						<polygon class="st6" points="8.7,2.4 8.8,3.4 9.5,0.2 						"/>
						<polygon class="st6" points="8.8,4.2 9,4.3 9.1,4.6 9.1,4.8 9.2,5 9.6,4.2 						"/>
						<polygon class="st6" points="10.2,3.1 10.8,4.6 11.3,3.7 						"/>
						<polygon class="st6" points="12.5,2.9 12.5,3.9 11.9,3.7 						"/>
						<polygon class="st6" points="12.5,5.3 11.4,5.8 11.7,4.4 						"/>
						<polygon class="st6" points="9.1,6.4 8.7,6.9 8.7,6.1 8.7,6.1 8.7,6.1 8.7,6.1 						"/>
						<polygon class="st6" points="9.4,5.5 10.1,5.7 9.7,6.2 						"/>
						<polygon class="st6" points="9.3,7.6 9.3,8.1 10.4,7.7 						"/>
						<polygon class="st6" points="10.1,9 10.6,9.8 9.3,11.7 						"/>
						<polygon class="st6" points="11.3,8.7 11.3,7.1 12.5,8.1 						"/>
					</g>
					<g class="st12">
						<polygon class="st6" points="5.3,-1.8 5.7,-1.3 5.9,-2 						"/>
						<polygon class="st6" points="5.7,-2.9 6.3,-3.3 6.3,-3 						"/>
						<polygon class="st6" points="7.5,-2.8 7.4,-2.4 7.1,-2.2 6.9,-3 						"/>
						<polygon class="st6" points="7.5,-3.3 8,-3.9 8.1,-3 						"/>
						<polygon class="st6" points="9.3,-3.7 9.4,-2.9 8.8,-3.4 						"/>
						<polygon class="st6" points="9.5,-2 10,-1.5 10,-2.2 						"/>
						<polygon class="st6" points="11.5,1 11.9,1.1 11.9,0.1 						"/>
						<polygon class="st6" points="5,-0.5 5.2,0.2 4.3,0 						"/>
						<polygon class="st6" points="4.7,1.6 5,1.6 5.1,1.3 						"/>
						<polygon class="st6" points="6.2,4.8 5.6,6.1 6.8,5.6 						"/>
						<polygon class="st6" points="7.8,3.9 7.5,3.3 8,3.4 						"/>
						<polygon class="st6" points="7.3,2.4 7.3,0.2 7.9,0.2 						"/>
						<polygon class="st6" points="6.1,2.8 6.8,2.9 6.8,3.9 6.3,3.6 						"/>
						<polygon class="st6" points="3.7,2.9 4.1,2.6 4.3,3.4 						"/>
						<polygon class="st6" points="4.9,4.1 5.7,4.6 4.7,4.9 						"/>
						<polygon class="st6" points="4.8,5.8 3.7,6.7 3.7,5.4 						"/>
						<polygon class="st6" points="6,8.1 6.6,7.1 7.5,7.3 						"/>
						<polygon class="st6" points="8.2,8.1 8.7,8.6 8.7,8.1 8.7,8.1 8.6,8.1 8.6,8.1 						"/>
						<polygon class="st6" points="11.5,2 10.2,3.1 11.8,2.6 						"/>
						<polygon class="st6" points="11.3,3.7 10.8,4.6 11.7,4.4 						"/>
						<polygon class="st6" points="12.5,5.3 12.5,6.8 11.4,5.8 						"/>
						<polygon class="st6" points="9.2,5 10.1,5.7 9.4,5.5 						"/>
						<polygon class="st6" points="9,5.8 8.9,5.9 8.8,6 8.8,6.1 8.7,6.1 8.7,6.1 9.1,6.4 						"/>
						<polygon class="st6" points="9.7,6.2 10.2,6.9 10.1,5.7 						"/>
						<polygon class="st6" points="9.3,8.1 10.4,7.7 10.1,9 						"/>
						<polygon class="st6" points="12.5,9 12.5,8.1 11.3,8.7 						"/>
					</g>
					<g class="st13">
						<polygon class="st6" points="5.2,-2.4 4.9,-1.9 5.3,-1.8 						"/>
						<polygon class="st6" points="5.9,-2 6.5,-1.8 6.3,-2.5 						"/>
						<polygon class="st6" points="6.3,-3 6.9,-3 6.7,-3.6 6.3,-3.3 						"/>
						<polygon class="st6" points="7.5,-2.8 8.1,-3 7.8,-2.5 						"/>
						<polygon class="st6" points="8,-3.9 8.6,-3.8 8.8,-3.4 						"/>
						<polygon class="st6" points="9,-2.3 9.5,-2 9.4,-2.9 						"/>
						<polygon class="st6" points="10,-2.2 10.6,-1.8 10.8,-2.6 						"/>
						<polygon class="st6" points="11.1,-0.7 11.7,-0.8 11.3,-1.8 						"/>
						<polygon class="st6" points="11.3,0.2 11.5,1 10.6,0.8 						"/>
						<polygon class="st6" points="5,-0.5 5.7,-0.7 5.1,-1.2 						"/>
						<polygon class="st6" points="5.2,0.2 4.3,0.8 4.3,0 						"/>
						<polygon class="st6" points="5.1,1.3 5.5,1.5 5.4,1.6 5.4,1.6 5,1.6 						"/>
						<polygon class="st6" points="6.8,5.6 6.2,4.8 7.1,4.6 7,4.9 7,5.2 						"/>
						<polygon class="st6" points="6.8,3.9 6.8,2.9 7.5,3.3 						"/>
						<polygon class="st6" points="7.9,2.6 7.9,0.2 8.5,0.2 						"/>
						<polygon class="st6" points="6.6,0.2 6.1,0.2 6.7,2.4 						"/>
						<polygon class="st6" points="3.8,2.2 3.8,2.3 3.7,2.4 3.7,2.5 3.7,2.9 4.1,2.6 						"/>
						<polygon class="st6" points="4.9,4.1 5.5,3.5 5.1,2.8 						"/>
						<polygon class="st6" points="3.7,4.2 3.7,5.4 4.7,4.9 						"/>
						<polygon class="st6" points="4.6,7.3 4.8,9.1 3.7,8.3 						"/>
						<polygon class="st6" points="5.3,9.8 6.5,11.7 6,8.1 						"/>
						<polygon class="st6" points="8.2,8.1 8.1,11.7 8.7,8.6 						"/>
						<polygon class="st6" points="6.6,7.1 6.9,6.4 5.6,6.1 						"/>
						<polygon class="st6" points="8.8,3.4 9.6,4.2 8.8,4.2 						"/>
						<polygon class="st6" points="11.8,2.6 12.5,2.9 11.9,3.7 11.3,3.7 						"/>
						<polygon class="st6" points="11.7,4.4 11.4,5.8 10.8,4.6 						"/>
						<polygon class="st6" points="9.2,5 9.4,5.5 9.1,5.4 9.2,5.2 						"/>
						<polygon class="st6" points="9.7,6.2 9.6,7 10.2,6.9 						"/>
						<polygon class="st6" points="8.7,6.9 9.3,7.6 8.7,8.1 8.7,8.1 8.7,8.1 8.7,8 						"/>
						<polygon class="st6" points="10.6,9.8 11.7,9.8 11.3,8.7 						"/>
						<polygon class="st6" points="12.5,8.1 12.5,6.8 11.3,7.1 						"/>
					</g>
					<g class="st12">
						<polygon class="st6" points="5.1,-1.2 5.7,-0.7 5.7,-1.3 						"/>
						<polygon class="st6" points="6.3,-2.5 6.3,-3 5.7,-2.9 						"/>
						<polygon class="st6" points="7.5,-2.8 8.1,-3 7.5,-3.3 						"/>
						<polygon class="st6" points="9.3,-3.7 9.8,-3.4 9.4,-2.9 						"/>
						<polygon class="st6" points="10,-2.2 10,-1.5 10.6,-1.8 						"/>
						<polygon class="st6" points="11.3,0.2 11.7,-0.8 11.1,-0.7 						"/>
						<polygon class="st6" points="11.1,1.6 11.5,1.6 11.5,1 						"/>
						<polygon class="st6" points="4.3,0.8 4.3,1.4 5.1,1.3 						"/>
						<polygon class="st6" points="5,2 5.1,2.8 4.6,2.7 						"/>
						<polygon class="st6" points="4.9,4.1 4.7,4.9 3.7,4.2 						"/>
						<polygon class="st6" points="6.3,3.6 6.2,4.8 6.8,3.9 						"/>
						<polygon class="st6" points="3.7,8.3 3.7,9.1 3.7,9.3 3.8,9.4 3.8,9.5 3.8,9.6 3.9,9.7 4.8,9.1 						"/>
						<polygon class="st6" points="6,8.1 6.5,11.7 7.5,8.1 						"/>
						<polygon class="st6" points="8.7,8.6 9.3,11.7 8.1,11.7 						"/>
						<polygon class="st6" points="5.6,6.1 6.8,5.6 6.9,6.4 						"/>
						<polygon class="st6" points="8.8,3.4 9.5,0.2 10.2,3.1 						"/>
						<polygon class="st6" points="9.2,5 10.1,5.7 9.6,4.2 						"/>
						<polygon class="st6" points="11.9,2 11.8,2.6 12.5,2.9 						"/>
						<polygon class="st6" points="9.6,7 10.4,7.7 9.3,7.6 						"/>
						<polygon class="st6" points="10.1,9 10.6,9.8 11.3,8.7 						"/>
						<polygon class="st6" points="11.3,7.1 11.4,5.8 12.5,6.8 						"/>
					</g>
				</g>
			</g>
		</g>
	</g>
</g>
</svg>
