<?xml version="1.0" encoding="utf-8"?>
<!-- Generator: Adobe Illustrator 25.2.1, SVG Export Plug-In . SVG Version: 6.00 Build 0)  -->
<svg version="1.1" xmlns="http://www.w3.org/2000/svg" xmlns:xlink="http://www.w3.org/1999/xlink" x="0px" y="0px"
	 viewBox="0 0 54 54" style="enable-background:new 0 0 54 54;" xml:space="preserve">
<style type="text/css">
	.st0{fill:#E21E37;}
</style>
<g id="Layer_1">
	<g>
		<path class="st0" d="M13.3,24.4l2.3,1.8c0,0.3,0,0.5,0,0.8s0,0.5,0,0.8l-2.3,1.8c-0.7,0.5-0.9,1.5-0.4,2.3
			c0.1,0.2,0.3,0.3,0.5,0.3c0.1,0,0.2,0,0.3-0.1c0.3-0.2,0.4-0.5,0.2-0.8c-0.2-0.3-0.1-0.7,0.1-0.9l2.8-2.2l0-0.3
			c0-0.4-0.1-0.7-0.1-1c0-0.3,0-0.6,0.1-1l0-0.3L14,23.5c-0.3-0.2-0.3-0.6-0.2-0.8l2.6-4.6c0.1-0.3,0.5-0.4,0.8-0.3l3.3,1.3l0.3-0.2
			c0.6-0.4,1.1-0.7,1.7-1l0.3-0.1l0.5-3.5c0-0.3,0.3-0.5,0.6-0.5h2.6c0.3,0,0.6-0.3,0.6-0.6s-0.3-0.6-0.6-0.6H24
			c-0.9,0-1.7,0.7-1.8,1.5L21.8,17c-0.5,0.2-0.9,0.5-1.3,0.8l-2.7-1.1c-0.8-0.3-1.8,0-2.2,0.8l-2.6,4.6
			C12.4,22.9,12.6,23.9,13.3,24.4z"/>
		<path class="st0" d="M28.7,13.2c0,0.3,0.3,0.6,0.6,0.6c0.3,0,0.6,0.2,0.6,0.6l0.5,3.5l0.3,0.1c0.6,0.3,1.2,0.6,1.7,1l0.3,0.2
			l3.3-1.3c0.3-0.1,0.7,0,0.8,0.3l2.6,4.6c0.2,0.3,0.1,0.6-0.1,0.8l-2.8,2.2l0,0.3c0,0.3,0.1,0.6,0.1,1c0,0.4,0,0.7-0.1,1l0,0.3
			l2.8,2.2c0.3,0.2,0.3,0.6,0.2,0.8c-0.2,0.3-0.1,0.6,0.2,0.8c0.1,0,0.2,0.1,0.3,0.1c0.2,0,0.4-0.1,0.5-0.3c0.4-0.8,0.2-1.8-0.5-2.3
			l-2.3-1.8c0-0.2,0-0.5,0-0.8s0-0.5,0-0.8l2.3-1.8c0.7-0.5,0.9-1.5,0.4-2.3l-2.6-4.6c-0.4-0.8-1.4-1.1-2.3-0.8l-2.7,1.1
			c-0.4-0.3-0.9-0.6-1.3-0.8l-0.4-2.9c-0.1-0.9-0.9-1.6-1.8-1.6C29,12.6,28.7,12.9,28.7,13.2z"/>
		<path class="st0" d="M38.6,33.9c-0.3-0.2-0.6-0.1-0.8,0.2l-1,1.8c-0.1,0.3-0.5,0.4-0.8,0.3l-3.3-1.3l-0.3,0.2
			c-0.6,0.4-1.1,0.7-1.7,1l-0.3,0.1l-0.5,3.5c0,0.3-0.3,0.5-0.6,0.5H24c-0.3,0-0.6-0.2-0.6-0.6l-0.5-3.5L22.6,36
			c-0.6-0.3-1.2-0.6-1.7-1l-0.3-0.2l-3.3,1.3c-0.3,0.1-0.7,0-0.8-0.3L15,33.3c-0.2-0.3-0.5-0.4-0.8-0.2c-0.3,0.2-0.4,0.5-0.2,0.8
			l1.5,2.6c0.4,0.8,1.4,1.1,2.3,0.8l2.7-1.1c0.4,0.3,0.9,0.6,1.3,0.8l0.4,2.9c0.1,0.9,0.9,1.6,1.8,1.6h5.3c0.9,0,1.7-0.7,1.8-1.5
			l0.4-2.9c0.5-0.2,0.9-0.5,1.3-0.8l2.7,1.1c0.8,0.3,1.8,0,2.2-0.8l1-1.8C39,34.5,38.9,34.1,38.6,33.9z"/>
		<path class="st0" d="M29.4,31.2c0.1,0.1,0.3,0.2,0.4,0.2c0.1,0,0.3,0,0.4-0.1c2.4-2,2.7-5.5,0.8-7.9c-1.4-1.7-3.7-2.5-5.9-1.8
			c-0.3,0.1-0.5,0.4-0.4,0.7c0.1,0.3,0.4,0.5,0.7,0.4c1.7-0.5,3.6,0.1,4.7,1.4c1.5,1.9,1.3,4.7-0.6,6.2C29.2,30.6,29.2,31,29.4,31.2
			z"/>
		<path class="st0" d="M23.9,22.8c-0.2-0.2-0.6-0.3-0.8-0.1c-2.4,2-2.7,5.5-0.8,7.9c1,1.2,2.5,2,4.1,2c0,0,0,0,0,0
			c0.3,0,0.6-0.2,0.6-0.6c0-0.3-0.2-0.6-0.6-0.6c-1.3-0.1-2.4-0.6-3.2-1.6c-1.6-1.9-1.3-4.7,0.6-6.2C24.1,23.4,24.1,23,23.9,22.8z"
			/>
		<path class="st0" d="M24.8,5.8l1.6-1.6v4.7c0,0.3,0.3,0.6,0.6,0.6s0.6-0.3,0.6-0.6V4.2l1.6,1.6C29.3,5.9,29.5,6,29.6,6
			s0.3-0.1,0.4-0.2c0.2-0.2,0.2-0.6,0-0.8l-3-3l-3,3c-0.2,0.2-0.2,0.6,0,0.8C24.2,6.1,24.6,6.1,24.8,5.8z"/>
		<path class="st0" d="M29.2,48.2l-1.6,1.6v-4.7c0-0.3-0.3-0.6-0.6-0.6s-0.6,0.3-0.6,0.6v4.7l-1.6-1.6c-0.2-0.2-0.6-0.2-0.8,0
			c-0.2,0.2-0.2,0.6,0,0.8l3,3l3-3c0.2-0.2,0.2-0.6,0-0.8C29.8,47.9,29.4,47.9,29.2,48.2z"/>
		<path class="st0" d="M49,24c-0.2-0.2-0.6-0.2-0.8,0c-0.2,0.2-0.2,0.6,0,0.8l1.6,1.6h-4.7c-0.3,0-0.6,0.3-0.6,0.6s0.3,0.6,0.6,0.6
			h4.7l-1.6,1.6c-0.2,0.2-0.2,0.6,0,0.8c0.1,0.1,0.3,0.2,0.4,0.2c0.1,0,0.3-0.1,0.4-0.2l3-3L49,24z"/>
		<path class="st0" d="M9.5,27c0-0.3-0.3-0.6-0.6-0.6H4.2l1.6-1.6c0.2-0.2,0.2-0.6,0-0.8c-0.2-0.2-0.6-0.2-0.8,0l-3,3l3,3
			c0.1,0.1,0.3,0.2,0.4,0.2s0.3-0.1,0.4-0.2c0.2-0.2,0.2-0.6,0-0.8l-1.6-1.6H9C9.3,27.6,9.5,27.3,9.5,27z"/>
		<path class="st0" d="M13.8,39.4l-3.3,3.3v-2.3c0-0.3-0.3-0.6-0.6-0.6c-0.3,0-0.6,0.3-0.6,0.6v4.3h4.3c0.3,0,0.6-0.3,0.6-0.6
			s-0.3-0.6-0.6-0.6h-2.3l3.3-3.3c0.2-0.2,0.2-0.6,0-0.8C14.4,39.1,14.1,39.1,13.8,39.4z"/>
		<path class="st0" d="M39.8,14.8c0.1,0,0.3-0.1,0.4-0.2l3.3-3.3v2.3c0,0.3,0.3,0.6,0.6,0.6s0.6-0.3,0.6-0.6V9.3h-4.3
			c-0.3,0-0.6,0.3-0.6,0.6c0,0.3,0.3,0.6,0.6,0.6h2.3l-3.3,3.3c-0.2,0.2-0.2,0.6,0,0.8C39.5,14.7,39.6,14.8,39.8,14.8z"/>
		<path class="st0" d="M44.1,39.8c-0.3,0-0.6,0.3-0.6,0.6v2.3l-3.3-3.3c-0.2-0.2-0.6-0.2-0.8,0c-0.2,0.2-0.2,0.6,0,0.8l3.3,3.3h-2.3
			c-0.3,0-0.6,0.3-0.6,0.6s0.3,0.6,0.6,0.6h4.3v-4.3C44.7,40.1,44.4,39.8,44.1,39.8z"/>
		<path class="st0" d="M9.9,14.2c0.3,0,0.6-0.3,0.6-0.6v-2.3l3.3,3.3c0.1,0.1,0.3,0.2,0.4,0.2s0.3-0.1,0.4-0.2
			c0.2-0.2,0.2-0.6,0-0.8l-3.3-3.3h2.3c0.3,0,0.6-0.3,0.6-0.6c0-0.3-0.3-0.6-0.6-0.6H9.3v4.3C9.3,13.9,9.6,14.2,9.9,14.2z"/>
	</g>
</g>
<g id="Capa_1">
</g>
</svg>
