<?xml version="1.0" encoding="utf-8"?>
<!-- Generator: Adobe Illustrator 25.2.1, SVG Export Plug-In . SVG Version: 6.00 Build 0)  -->
<svg version="1.1" xmlns="http://www.w3.org/2000/svg" xmlns:xlink="http://www.w3.org/1999/xlink" x="0px" y="0px"
	 viewBox="0 0 46 54" style="enable-background:new 0 0 46 54;" xml:space="preserve">
<style type="text/css">
	.st0{fill:#E21F37;}
	.st1{fill:#EA2B2C;}
	.st2{fill:#EA2C2D;}
	.st3{fill:#060605;}
	.st4{fill:#E73632;}
	.st5{fill:#FFFFFF;}
	.st6{fill:#FFFFFF;stroke:#E21F37;stroke-width:10;stroke-miterlimit:10;}
	.st7{fill:none;stroke:#E21F37;stroke-width:10;stroke-miterlimit:10;}
	.st8{fill:none;stroke:#E21F37;stroke-width:6;stroke-miterlimit:10;}
	.st9{fill:none;stroke:#E21F37;stroke-width:6;stroke-linecap:round;stroke-miterlimit:10;}
	.st10{fill:#010101;}
	.st11{fill:#E31F36;}
	.st12{fill:none;stroke:#010101;stroke-miterlimit:10;}
	.st13{fill:#FFFFFF;stroke:#E21F37;stroke-width:6;stroke-miterlimit:10;}
	.st14{fill:#FFFFFF;stroke:#E21F37;stroke-width:6;stroke-linecap:round;stroke-miterlimit:10;}
	.st15{fill:#FFFFFF;stroke:#E21F37;stroke-width:4;stroke-miterlimit:10;}
</style>
<g id="Layer_1">
	<g>
		<path class="st0" d="M30.39,14.43c-0.46-0.46-1.06-0.71-1.7-0.71s-1.25,0.25-1.7,0.71c-0.46,0.46-0.71,1.06-0.71,1.7
			s0.25,1.25,0.71,1.7l4.11,4.11c0.46,0.46,1.06,0.71,1.7,0.71s1.25-0.25,1.7-0.71l8.77-8.77c0.46-0.46,0.71-1.06,0.71-1.7
			c0-0.64-0.25-1.25-0.71-1.7c-0.46-0.46-1.06-0.71-1.7-0.71s-1.25,0.25-1.7,0.71l-0.97,0.97c-0.72-0.55-1.5-0.99-2.34-1.3v-1.1
			c0-1.33-1.08-2.41-2.41-2.41h-7.56V5.08c0-1.7-1.38-3.08-3.08-3.08h-8.43c-1.7,0-3.08,1.38-3.08,3.08v3.48
			c0,0.94,0.77,1.71,1.71,1.71h11.17c0.94,0,1.71-0.77,1.71-1.71V7.38h7.56c0.52,0,0.94,0.42,0.94,0.94V9
			c-0.6-0.12-1.22-0.19-1.85-0.19c-5.14,0-9.32,4.18-9.32,9.32s4.18,9.32,9.32,9.32c0.63,0,1.24-0.06,1.85-0.18v22.32
			c0,0.52-0.42,0.94-0.94,0.94H4.44c-0.52,0-0.94-0.42-0.94-0.94V8.33c0-0.52,0.42-0.94,0.94-0.94h4.88c0.41,0,0.73-0.33,0.73-0.73
			S9.72,5.92,9.31,5.92H4.44C3.11,5.92,2.02,7,2.02,8.33v41.26c0,1.33,1.08,2.41,2.41,2.41h29.71c1.33,0,2.41-1.08,2.41-2.41V26.85
			c1.17-0.44,2.25-1.12,3.17-2.01c1.74-1.69,2.75-3.95,2.83-6.37c0.01-0.4-0.3-0.74-0.71-0.76c-0.4-0.01-0.74,0.3-0.76,0.71
			c-0.12,3.41-2.36,6.22-5.43,7.2c-0.04,0.01-0.08,0.02-0.12,0.04c-0.72,0.22-1.49,0.33-2.29,0.33c-4.33,0-7.85-3.52-7.85-7.85
			s3.52-7.85,7.85-7.85c1.66,0,3.27,0.53,4.6,1.49l-5.05,5.05L30.39,14.43z M25.12,8.56c0,0.14-0.11,0.24-0.24,0.24H13.71
			c-0.14,0-0.24-0.11-0.24-0.24V5.08c0-0.89,0.72-1.61,1.61-1.61h8.43c0.89,0,1.61,0.72,1.61,1.61V8.56z M40.9,10.8
			c0.18-0.18,0.42-0.28,0.67-0.28c0.25,0,0.49,0.1,0.67,0.28c0.37,0.37,0.37,0.97,0,1.33l-8.77,8.77c-0.18,0.18-0.42,0.28-0.67,0.28
			s-0.49-0.1-0.67-0.28l-4.11-4.11c-0.18-0.18-0.28-0.42-0.28-0.67s0.1-0.49,0.28-0.67c0.18-0.18,0.42-0.28,0.67-0.28
			c0.25,0,0.49,0.1,0.67,0.28l2.92,2.92c0.29,0.29,0.75,0.29,1.04,0L40.9,10.8z"/>
		<path class="st0" d="M21.99,24.07h-8.94c-0.41,0-0.73,0.33-0.73,0.73c0,0.4,0.33,0.73,0.73,0.73h8.94c0.41,0,0.73-0.33,0.73-0.73
			C22.72,24.4,22.39,24.07,21.99,24.07z"/>
		<path class="st0" d="M11.65,12.84H6.72c-0.41,0-0.73,0.33-0.73,0.73s0.33,0.73,0.73,0.73h4.94c0.41,0,0.73-0.33,0.73-0.73
			S12.06,12.84,11.65,12.84z"/>
		<path class="st0" d="M19.8,15.85H6.72c-0.41,0-0.73,0.33-0.73,0.73s0.33,0.73,0.73,0.73H19.8c0.41,0,0.73-0.33,0.73-0.73
			S20.2,15.85,19.8,15.85z"/>
		<path class="st0" d="M13.05,28.94h8.94c0.41,0,0.73-0.33,0.73-0.73c0-0.4-0.33-0.73-0.73-0.73h-8.94c-0.41,0-0.73,0.33-0.73,0.73
			C12.32,28.61,12.65,28.94,13.05,28.94z"/>
		<path class="st0" d="M25.08,32.97H13.05c-0.41,0-0.73,0.33-0.73,0.73s0.33,0.73,0.73,0.73h12.03c0.41,0,0.73-0.33,0.73-0.73
			S25.48,32.97,25.08,32.97z"/>
		<path class="st0" d="M13.05,37.84h6.01c0.41,0,0.73-0.33,0.73-0.73s-0.33-0.73-0.73-0.73h-6.01c-0.41,0-0.73,0.33-0.73,0.73
			S12.65,37.84,13.05,37.84z"/>
		<path class="st0" d="M13.05,43.34h8.94c0.41,0,0.73-0.33,0.73-0.73s-0.33-0.73-0.73-0.73h-8.94c-0.41,0-0.73,0.33-0.73,0.73
			S12.65,43.34,13.05,43.34z"/>
		<path class="st0" d="M13.05,46.74h12.03c0.41,0,0.73-0.33,0.73-0.73c0-0.4-0.33-0.73-0.73-0.73H13.05c-0.41,0-0.73,0.33-0.73,0.73
			C12.32,46.42,12.65,46.74,13.05,46.74z"/>
		<path class="st0" d="M8.27,23.44c-1.63,0-2.96,1.33-2.96,2.96s1.33,2.96,2.96,2.96s2.96-1.33,2.96-2.96S9.91,23.44,8.27,23.44z
			 M8.27,27.89c-0.82,0-1.5-0.67-1.5-1.5s0.67-1.5,1.5-1.5s1.5,0.67,1.5,1.5S9.1,27.89,8.27,27.89z"/>
		<path class="st0" d="M8.27,32.44c-1.63,0-2.96,1.33-2.96,2.96c0,1.63,1.33,2.96,2.96,2.96s2.96-1.33,2.96-2.96
			C11.23,33.77,9.91,32.44,8.27,32.44z M8.27,36.9c-0.82,0-1.5-0.67-1.5-1.5c0-0.83,0.67-1.5,1.5-1.5s1.5,0.67,1.5,1.5
			C9.77,36.23,9.1,36.9,8.27,36.9z"/>
		<path class="st0" d="M8.27,41.35c-1.63,0-2.96,1.33-2.96,2.96s1.33,2.96,2.96,2.96s2.96-1.33,2.96-2.96S9.91,41.35,8.27,41.35z
			 M8.27,45.8c-0.82,0-1.5-0.67-1.5-1.5s0.67-1.5,1.5-1.5s1.5,0.67,1.5,1.5S9.1,45.8,8.27,45.8z"/>
	</g>
</g>
<g id="Capa_1">
</g>
</svg>
